<svg xmlns="http://www.w3.org/2000/svg" viewBox="0 0 259 207">
  <title>fashion</title>
  <g>
    <circle cx="135.03" cy="105.1" r="91.33" fill="#e9e0db"/>
    <g>
      <line x1="42.23" y1="56.39" x2="42.23" y2="61.44" fill="#fff" stroke="#575956" stroke-linecap="round" stroke-linejoin="round" stroke-width="2"/>
      <line x1="42.23" y1="66.66" x2="42.23" y2="71.71" fill="#fff" stroke="#575956" stroke-linecap="round" stroke-linejoin="round" stroke-width="2"/>
      <line x1="49.89" y1="64.05" x2="44.83" y2="64.05" fill="#fff" stroke="#575956" stroke-linecap="round" stroke-linejoin="round" stroke-width="2"/>
      <line x1="39.62" y1="64.05" x2="34.56" y2="64.05" fill="#fff" stroke="#575956" stroke-linecap="round" stroke-linejoin="round" stroke-width="2"/>
    </g>
    <g>
      <line x1="234.02" y1="57.23" x2="234.02" y2="62.28" fill="#fff" stroke="#575956" stroke-linecap="round" stroke-linejoin="round" stroke-width="2"/>
      <line x1="234.02" y1="67.5" x2="234.02" y2="72.55" fill="#fff" stroke="#575956" stroke-linecap="round" stroke-linejoin="round" stroke-width="2"/>
      <line x1="241.68" y1="64.89" x2="236.63" y2="64.89" fill="#fff" stroke="#575956" stroke-linecap="round" stroke-linejoin="round" stroke-width="2"/>
      <line x1="231.41" y1="64.89" x2="226.36" y2="64.89" fill="#fff" stroke="#575956" stroke-linecap="round" stroke-linejoin="round" stroke-width="2"/>
    </g>
    <g>
      <line x1="183.8" y1="146.93" x2="183.8" y2="151.35" fill="#fff" stroke="#575956" stroke-linecap="round" stroke-linejoin="round" stroke-width="2"/>
      <line x1="183.8" y1="155.92" x2="183.8" y2="160.35" fill="#fff" stroke="#575956" stroke-linecap="round" stroke-linejoin="round" stroke-width="2"/>
      <line x1="177.1" y1="153.64" x2="181.52" y2="153.64" fill="#fff" stroke="#575956" stroke-linecap="round" stroke-linejoin="round" stroke-width="2"/>
      <line x1="186.09" y1="153.64" x2="190.51" y2="153.64" fill="#fff" stroke="#575956" stroke-linecap="round" stroke-linejoin="round" stroke-width="2"/>
    </g>
    <g>
      <line x1="114.85" y1="0.39" x2="114.85" y2="4.81" fill="#fff" stroke="#575956" stroke-linecap="round" stroke-linejoin="round" stroke-width="2"/>
      <line x1="114.85" y1="9.38" x2="114.85" y2="13.8" fill="#fff" stroke="#575956" stroke-linecap="round" stroke-linejoin="round" stroke-width="2"/>
      <line x1="108.14" y1="7.1" x2="112.56" y2="7.1" fill="#fff" stroke="#575956" stroke-linecap="round" stroke-linejoin="round" stroke-width="2"/>
      <line x1="117.13" y1="7.1" x2="121.55" y2="7.1" fill="#fff" stroke="#575956" stroke-linecap="round" stroke-linejoin="round" stroke-width="2"/>
    </g>
    <g>
      <path d="M93.12,175s45.82-15.91,62.21-37L100,88,64.81,142.81Z" fill="#fffaf7"/>
      <g>
        <path d="M17.32,134.06s51.6,65.17,64.84,72.55c0,0,12.71-3.87,20.32-24.64,0,0-32.57-40.62-51.6-60C50.88,122,37.3,112.56,17.32,134.06Z" fill="#6492d1"/>
        <g>
          <rect x="113.75" y="24.38" width="75.57" height="114.62" rx="7.92" ry="7.92" transform="translate(218.44 240.32) rotate(-141.2)" fill="#6492d1" stroke="#534741" stroke-miterlimit="10" stroke-width="2"/>
          <rect x="122.92" y="35.65" width="62.27" height="85.83" transform="translate(224.87 236.33) rotate(-141.2)" fill="#fffaf7" stroke="#534741" stroke-miterlimit="10" stroke-width="2"/>
          <rect x="125.76" y="38.39" width="56.59" height="80.35" transform="translate(224.87 236.33) rotate(-141.2)" fill="none" stroke="#534741" stroke-miterlimit="10"/>
          <rect x="108.81" y="114.35" width="26.2" height="8.39" rx="4.19" ry="4.19" transform="translate(142.62 287.32) rotate(-141.2)" fill="none" stroke="#534741" stroke-miterlimit="10" stroke-width="2"/>
        </g>
        <g>
          <rect x="174.1" y="70.86" width="3.14" height="23.53" transform="translate(260.79 257.1) rotate(-141.2)" fill="#534741"/>
          <rect x="151.78" y="52.91" width="3.14" height="23.53" transform="translate(232.32 211.17) rotate(-141.2)" fill="#534741"/>
          <rect x="171.83" y="68.4" width="1.57" height="23.53" transform="translate(256.89 250.81) rotate(-141.2)" fill="#534741"/>
          <rect x="169.38" y="66.43" width="1.57" height="23.53" transform="translate(253.77 245.78) rotate(-141.2)" fill="#534741"/>
          <rect x="166.94" y="64.47" width="1.57" height="23.53" transform="translate(250.65 240.75) rotate(-141.2)" fill="#534741"/>
          <rect x="165.19" y="62.75" width="0.78" height="23.53" transform="translate(247.92 236.34) rotate(-141.2)" fill="#534741"/>
          <rect x="163.29" y="61.53" width="1.57" height="23.53" transform="translate(246 233.24) rotate(-141.2)" fill="#534741"/>
          <rect x="160.84" y="59.57" width="1.57" height="23.53" transform="translate(242.88 228.21) rotate(-141.2)" fill="#534741"/>
          <rect x="158.4" y="57.6" width="1.57" height="23.53" transform="translate(239.76 223.18) rotate(-141.2)" fill="#534741"/>
          <rect x="156.65" y="55.88" width="0.78" height="23.53" transform="translate(237.03 218.78) rotate(-141.2)" fill="#534741"/>
          <rect x="149.82" y="50.38" width="0.78" height="23.53" transform="translate(228.32 204.71) rotate(-141.2)" fill="#534741"/>
          <rect x="147.92" y="49.17" width="1.57" height="23.53" transform="translate(226.39 201.61) rotate(-141.2)" fill="#534741"/>
          <rect x="145.47" y="47.2" width="1.57" height="23.53" transform="translate(223.27 196.58) rotate(-141.2)" fill="#534741"/>
        </g>
        <path d="M95.2,120.29c31.14-37.7,17-42.81,24.22-59.18s-1.63-40-11.87-12.56-48.38,76.73-48.38,76.73l41.08,43.4" fill="#fffaf7" stroke="#534741" stroke-miterlimit="10" stroke-width="2"/>
        <path d="M160.84,137.37S121,167.49,96.86,174" fill="none" stroke="#534741" stroke-miterlimit="10" stroke-width="2"/>
        <rect x="143.64" y="120.65" width="29.59" height="14.23" rx="7.11" ry="7.11" transform="translate(231.79 317.63) rotate(-150.01)" fill="#fffaf7" stroke="#534741" stroke-miterlimit="10" stroke-width="2"/>
        <rect x="138.84" y="133.02" width="25.49" height="14.23" rx="7.11" ry="7.11" transform="translate(212.81 337.28) rotate(-150.01)" fill="#fffaf7" stroke="#534741" stroke-miterlimit="10" stroke-width="2"/>
        <rect x="152.64" y="108.83" width="29.59" height="14.23" rx="7.11" ry="7.11" transform="translate(254.49 300.06) rotate(-150.01)" fill="#fffaf7" stroke="#534741" stroke-miterlimit="10" stroke-width="2"/>
        <rect x="161.65" y="96.99" width="29.59" height="14.23" rx="7.11" ry="7.11" transform="translate(277.22 282.48) rotate(-150.01)" fill="#fffaf7" stroke="#534741" stroke-miterlimit="10" stroke-width="2"/>
        <path d="M101.84,182.16l10.46-5.84C107.89,166,59.39,117,59.39,117l-9.15,5.13S100.61,178.17,101.84,182.16Z" fill="#fffaf7" stroke="#534741" stroke-linejoin="round" stroke-width="2"/>
      </g>
      <path d="M50.57,122s-9.94-8-32.92,11.91" fill="none" stroke="#534741" stroke-linejoin="round" stroke-width="2"/>
      <path d="M102.17,182s-3.7,14.65-19.68,24.45" fill="none" stroke="#534741" stroke-linejoin="round" stroke-width="2"/>
    </g>
  </g>
</svg>
