<svg xmlns="http://www.w3.org/2000/svg" viewBox="0 0 75.22 75.22">
  <title>gift</title>
  <g>
    <circle cx="37.61" cy="37.61" r="37.61" fill="#e9e0db"/>
    <g>
      <rect x="13.74" y="2.5" width="46.13" height="71.22" rx="5.5" ry="5.5" fill="#fffaf7" stroke="#534741" stroke-width="1.5"/>
      <rect x="17.79" y="8.75" width="38.04" height="54.72" fill="#fffaf7" stroke="#534741" stroke-width="1.5"/>
      <circle cx="36.67" cy="68.32" r="1.89" fill="#fffaf7" stroke="#534741"/>
      <rect x="30.52" y="4.98" width="11.76" height="1.19" rx="0.6" ry="0.6" fill="#534741"/>
      <g>
        <path d="M37.84,21.88a1.77,1.77,0,0,0,.07-.52,2,2,0,0,0-4,0,1.77,1.77,0,0,0,.07.52,21.19,21.19,0,0,0,1.92,4.95A21.51,21.51,0,0,0,37.84,21.88Z" fill="none" stroke="#ff9593"/>
        <path d="M41.17,26a2,2,0,0,0,.48-.2,2,2,0,0,0-2-3.46,1.94,1.94,0,0,0-.42.32,21.49,21.49,0,0,0-3.33,4.14A21.52,21.52,0,0,0,41.17,26Z" fill="none" stroke="#ff9593"/>
        <path d="M30.66,26a1.81,1.81,0,0,1-.48-.2,2,2,0,1,1,2-3.46,2.22,2.22,0,0,1,.42.32,21.28,21.28,0,0,1,3.32,4.14A21.46,21.46,0,0,1,30.66,26Z" fill="none" stroke="#ff9593"/>
      </g>
      <rect x="25.72" y="26.83" width="20.39" height="20.39" fill="#ff9593" stroke="#534741"/>
      <line x1="36.02" y1="27.31" x2="36.02" y2="47.7" fill="none" stroke="#534741"/>
      <line x1="45.74" y1="37.03" x2="25.34" y2="37.03" fill="none" stroke="#534741"/>
    </g>
  </g>
</svg>
