<svg xmlns="http://www.w3.org/2000/svg" viewBox="0 0 427 330">
  <title>connect</title>
  <g>
    <g opacity="0.1">
      <path d="M83,94.38c20-12,37.39-28,57.05-40.55C166.71,36.74,198,26,229.65,26.4s63.68,12.67,85.28,35.87c16,17.14,25.69,39.36,31.05,62.17,3.28,13.92,5,28.41,2.88,42.55-3.57,23.55-17.59,44.21-33.37,62a311.08,311.08,0,0,1-57.08,50.25c-11,7.53-22.56,14.44-35.19,18.7-13.69,4.62-28.31,6-42.75,5.55-27.84-.84-55.79-8.59-78.74-24.38S61.19,239.2,55.6,211.91c-3.15-15.39-2.51-31.31-1.11-47,2.4-26.72,8.65-56.07,30.41-71.76" fill="#6493d2"/>
    </g>
    <rect x="77.9" y="30.42" width="114" height="176" rx="9.07" ry="9.07" transform="translate(253.32 -16.48) rotate(90)" fill="#fffbf8" stroke="#534741" stroke-width="2"/>
    <path d="M129,128.72a18.76,18.76,0,0,0-2.61-5.12c-1-1.34-2.23-2.5-3.14-3.89-2.9-4.44-2.15-10.52-5-15-3-4.69-9.31-6.36-14.75-5.28s-10.18,4.35-14.53,7.81A142.4,142.4,0,0,0,47.4,161.5v7.88a6,6,0,0,0,6,6H111.8c5.77-6.26,11.26-12.91,14.83-20.62C130.4,146.68,131.88,137.18,129,128.72Z" fill="#6493d2" stroke="#534741" stroke-width="2"/>
    <path d="M134.45,114.07a3.58,3.58,0,0,0,1.25,2.32c1.42.92,3.88-.17,4.7,1.31a3.93,3.93,0,0,1,.11,2.16c0,.74.3,1.65,1,1.69s1.11-.73,1.37-1.36a68.4,68.4,0,0,1,13.73-21.1c2.16-2.27,4.48-4.39,6.49-6.8,2.14-2.57,3.9-5.44,6.19-7.87,2.64-2.81,5.92-5,8.68-7.64a59.17,59.17,0,0,0,7.49-9.61l3.88-5.75H137C133.39,78.86,130.32,96.84,134.45,114.07Z" fill="#6493d2" stroke="#534741" stroke-width="2"/>
    <path d="M106.84,95a5.44,5.44,0,0,0,2.48.39,3.89,3.89,0,0,0,2.31-1.5c2.46-3.06,1.71-7.52.59-11.29a97,97,0,0,0-9.13-21.19H52.94a6,6,0,0,0-6,6V80a66.32,66.32,0,0,1,8.37,1.36Q81.37,86.88,106.84,95Z" fill="#6493d2" stroke="#534741" stroke-width="2"/>
    <path d="M202.64,109.25a68.28,68.28,0,0,0-52,14.6,38,38,0,0,0-8,8.55,49.64,49.64,0,0,0-4.34,9.17q-1.79,4.58-3.44,9.2c3.66,2.18,8.1,2.5,12.36,2.62a194.49,194.49,0,0,0,33.84-2c11.9-1.75,23.78-4.61,35.8-4.1,2.18.1,4.34.3,6.51.56v-33A102.26,102.26,0,0,0,202.64,109.25Z" fill="#6493d2" stroke="#534741" stroke-width="2"/>
    <rect x="77.9" y="30.42" width="114" height="176" rx="9.07" ry="9.07" transform="translate(253.32 -16.48) rotate(90)" fill="none" stroke="#534741" stroke-width="2"/>
    <g>
      <rect x="214.75" y="128.07" width="130" height="200.7" rx="9.07" ry="9.07" transform="translate(508.17 -51.33) rotate(90)" fill="#fffbf8" stroke="#534741" stroke-width="2"/>
      <rect x="218.75" y="132.27" width="122" height="192.3" rx="9.07" ry="9.07" transform="translate(508.17 -51.33) rotate(90)" fill="#fffbf8" stroke="#534741"/>
      <g>
        <rect x="201.65" y="209.5" width="30.6" height="30.6" rx="9.07" ry="9.07" transform="translate(441.75 7.85) rotate(90)" fill="#fffbf8" stroke="#534741" stroke-width="2"/>
        <rect x="212.97" y="220.82" width="8.57" height="8.57" fill="none" stroke="#534741"/>
        <line x1="217.25" y1="209.19" x2="217.25" y2="220.82" fill="none" stroke="#534741"/>
        <line x1="217.25" y1="229.39" x2="217.25" y2="240.1" fill="none" stroke="#534741"/>
        <line x1="212.82" y1="224.95" x2="202.11" y2="224.95" fill="none" stroke="#534741"/>
        <line x1="232.4" y1="224.95" x2="221.69" y2="224.95" fill="none" stroke="#534741"/>
        <polyline points="221.54 220.82 224.6 217.15 232.25 217.15" fill="none" stroke="#534741"/>
        <polyline points="221.54 229.39 224.6 233.06 232.25 233.06" fill="none" stroke="#534741"/>
        <polyline points="212.97 220.82 209.91 217.15 202.26 217.15" fill="none" stroke="#534741"/>
        <polyline points="212.97 229.39 209.91 233.06 202.26 233.06" fill="none" stroke="#534741"/>
      </g>
      <text transform="translate(201.4 262.81)" font-size="16.45" fill="#534741" font-family="Dosis-Medium, Dosis Medium" letter-spacing="0.05em"><tspan xml:space="preserve">1234  5678  9012  3456</tspan></text>
      <rect x="284.4" y="185.42" width="65" height="8" fill="#6493d2" opacity="0.1"/>
      <rect x="284.4" y="197.42" width="65" height="8" fill="#6493d2" opacity="0.1"/>
    </g>
  </g>
</svg>
