<svg xmlns="http://www.w3.org/2000/svg" viewBox="0 0 427 330">
  <title>connect</title>
  <g>
    <g opacity="0.1">
      <path d="M83,94.38c20-12,37.39-28,57.05-40.55C166.71,36.74,198,26,229.65,26.4s63.68,12.67,85.28,35.87c16,17.14,25.69,39.36,31.05,62.17,3.28,13.92,5,28.41,2.88,42.55-3.57,23.55-17.59,44.21-33.37,62a311.08,311.08,0,0,1-57.08,50.25c-11,7.53-22.56,14.44-35.19,18.7-13.69,4.62-28.31,6-42.75,5.55-27.84-.84-55.79-8.59-78.74-24.38S61.19,239.2,55.6,211.91c-3.15-15.39-2.51-31.31-1.11-47,2.4-26.72,8.65-56.07,30.41-71.76" fill="#6492d1"/>
    </g>
    <rect x="77.9" y="30.42" width="114" height="176" rx="9.07" ry="9.07" transform="translate(253.32 -16.48) rotate(90)" fill="#fffaf7" stroke="#534741" stroke-miterlimit="10" stroke-width="2"/>
    <path d="M129,128.72a18.76,18.76,0,0,0-2.61-5.12c-1-1.34-2.23-2.5-3.14-3.89-2.9-4.44-2.15-10.52-5-15-3-4.69-9.31-6.36-14.75-5.28s-10.18,4.35-14.53,7.81A142.4,142.4,0,0,0,47.4,161.5v7.88a6,6,0,0,0,6,6H111.8c5.77-6.26,11.26-12.91,14.83-20.62C130.4,146.68,131.88,137.18,129,128.72Z" fill="#6492d1" stroke="#534741" stroke-miterlimit="10" stroke-width="2"/>
    <path d="M134.45,114.07a3.58,3.58,0,0,0,1.25,2.32c1.42.92,3.88-.17,4.7,1.31a3.93,3.93,0,0,1,.11,2.16c0,.74.3,1.65,1,1.69s1.11-.73,1.37-1.36a68.4,68.4,0,0,1,13.73-21.1c2.16-2.27,4.48-4.39,6.49-6.8,2.14-2.57,3.9-5.44,6.19-7.87,2.64-2.81,5.92-5,8.68-7.64a59.17,59.17,0,0,0,7.49-9.61l3.88-5.75H137C133.39,78.86,130.32,96.84,134.45,114.07Z" fill="#6492d1" stroke="#534741" stroke-miterlimit="10" stroke-width="2"/>
    <path d="M106.84,95a5.44,5.44,0,0,0,2.48.39,3.89,3.89,0,0,0,2.31-1.5c2.46-3.06,1.71-7.52.59-11.29a97,97,0,0,0-9.13-21.19H52.94a6,6,0,0,0-6,6V80a66.32,66.32,0,0,1,8.37,1.36Q81.37,86.88,106.84,95Z" fill="#6492d1" stroke="#534741" stroke-miterlimit="10" stroke-width="2"/>
    <path d="M202.64,109.25a68.28,68.28,0,0,0-52,14.6,38,38,0,0,0-8,8.55,49.64,49.64,0,0,0-4.34,9.17q-1.79,4.58-3.44,9.2c3.66,2.18,8.1,2.5,12.36,2.62a194.49,194.49,0,0,0,33.84-2c11.9-1.75,23.78-4.61,35.8-4.1,2.18.1,4.34.3,6.51.56v-33A102.26,102.26,0,0,0,202.64,109.25Z" fill="#6492d1" stroke="#534741" stroke-miterlimit="10" stroke-width="2"/>
    <rect x="77.9" y="30.42" width="114" height="176" rx="9.07" ry="9.07" transform="translate(253.32 -16.48) rotate(90)" fill="none" stroke="#534741" stroke-miterlimit="10" stroke-width="2"/>
    <g>
      <rect x="214.75" y="128.07" width="130" height="200.7" rx="9.07" ry="9.07" transform="translate(508.17 -51.33) rotate(90)" fill="#fffaf7" stroke="#534741" stroke-miterlimit="10" stroke-width="2"/>
      <rect x="218.75" y="132.27" width="122" height="192.3" rx="9.07" ry="9.07" transform="translate(508.17 -51.33) rotate(90)" fill="#fffaf7" stroke="#534741" stroke-miterlimit="10"/>
      <g>
        <rect x="201.65" y="209.5" width="30.6" height="30.6" rx="9.07" ry="9.07" transform="translate(441.75 7.85) rotate(90)" fill="#fffaf7" stroke="#534741" stroke-miterlimit="10" stroke-width="2"/>
        <rect x="212.97" y="220.82" width="8.57" height="8.57" fill="none" stroke="#534741" stroke-miterlimit="10"/>
        <line x1="217.25" y1="209.19" x2="217.25" y2="220.82" fill="none" stroke="#534741" stroke-miterlimit="10"/>
        <line x1="217.25" y1="229.39" x2="217.25" y2="240.1" fill="none" stroke="#534741" stroke-miterlimit="10"/>
        <line x1="212.82" y1="224.95" x2="202.11" y2="224.95" fill="none" stroke="#534741" stroke-miterlimit="10"/>
        <line x1="232.4" y1="224.95" x2="221.69" y2="224.95" fill="none" stroke="#534741" stroke-miterlimit="10"/>
        <polyline points="221.54 220.82 224.6 217.15 232.25 217.15" fill="none" stroke="#534741" stroke-miterlimit="10"/>
        <polyline points="221.54 229.39 224.6 233.06 232.25 233.06" fill="none" stroke="#534741" stroke-miterlimit="10"/>
        <polyline points="212.97 220.82 209.91 217.15 202.26 217.15" fill="none" stroke="#534741" stroke-miterlimit="10"/>
        <polyline points="212.97 229.39 209.91 233.06 202.26 233.06" fill="none" stroke="#534741" stroke-miterlimit="10"/>
      </g>
      <g>
        <path d="M201.55,253.35a.7.7,0,0,1,.29-.57l1.52-1.8a.61.61,0,0,1,.42-.21.68.68,0,0,1,.42.13.41.41,0,0,1,.19.36v11.06a.42.42,0,0,1-.2.36.88.88,0,0,1-.49.13.82.82,0,0,1-.48-.13.41.41,0,0,1-.21-.36v-9.48l-.61.91a.46.46,0,0,1-.34.18.48.48,0,0,1-.37-.17A.66.66,0,0,1,201.55,253.35Z" fill="#534741"/>
        <path d="M206.83,262.32v-1.6a2.36,2.36,0,0,1,.55-1.46,6.63,6.63,0,0,1,1.34-1.3l1.6-1.19a6.56,6.56,0,0,0,1.38-1.29,2.35,2.35,0,0,0,.57-1.46,2,2,0,0,0-.52-1.39,1.91,1.91,0,0,0-1.49-.59,1.94,1.94,0,0,0-1.35.46,1.72,1.72,0,0,0-.52,1.35.5.5,0,0,1-.2.39.8.8,0,0,1-.53.17c-.41,0-.62-.27-.62-.81a2.52,2.52,0,0,1,.93-2,3.39,3.39,0,0,1,2.29-.79,3.44,3.44,0,0,1,2.42.9,3,3,0,0,1,1,2.28,3.28,3.28,0,0,1-.4,1.58,4.49,4.49,0,0,1-1,1.29c-.4.35-.84.7-1.31,1.06l-1.32.94a4.64,4.64,0,0,0-1,.91,1.53,1.53,0,0,0-.4,1v.84h5.06a.42.42,0,0,1,.34.18.76.76,0,0,1,0,.88.39.39,0,0,1-.33.19h-5.83a.78.78,0,0,1-.42-.14A.4.4,0,0,1,206.83,262.32Z" fill="#534741"/>
        <path d="M215.51,260.11a.72.72,0,0,1,.14-.51.71.71,0,0,1,.5-.13.85.85,0,0,1,.55.13.5.5,0,0,1,.16.41,1.56,1.56,0,0,0,.53,1.14,2.28,2.28,0,0,0,1.62.51,2,2,0,0,0,2.21-2.27v-.31c0-1.34-.74-2-2.21-2-.31,0-.47-.19-.47-.58s.16-.57.47-.57a2,2,0,0,0,1.43-.43,2,2,0,0,0,.48-1.54c0-1.27-.61-1.91-1.84-1.91a2,2,0,0,0-1.49.46,1.57,1.57,0,0,0-.44,1.1c0,.41-.21.61-.65.61a.84.84,0,0,1-.59-.15.86.86,0,0,1-.14-.56,2.65,2.65,0,0,1,.16-.85,3,3,0,0,1,.5-.87,2.4,2.4,0,0,1,1-.71,4.28,4.28,0,0,1,1.63-.28c2.1,0,3.14,1,3.14,2.92a3.87,3.87,0,0,1-.36,1.75,2,2,0,0,1-1,1,2.57,2.57,0,0,1,1.68,2.62v.31a3.32,3.32,0,0,1-1,2.66,3.83,3.83,0,0,1-2.6.86,3.66,3.66,0,0,1-2.6-.86A2.64,2.64,0,0,1,215.51,260.11Z" fill="#534741"/>
        <path d="M224.16,259.52a.62.62,0,0,1,.08-.31l4.07-8a.67.67,0,0,1,.62-.39.76.76,0,0,1,.45.15.48.48,0,0,1,.23.39.51.51,0,0,1-.07.23l-3.6,7.17h2.84V256a.37.37,0,0,1,.21-.35.88.88,0,0,1,.49-.13.86.86,0,0,1,.48.13.37.37,0,0,1,.21.35v2.73H231a.42.42,0,0,1,.36.2.86.86,0,0,1,.13.48.79.79,0,0,1-.15.46.42.42,0,0,1-.34.21h-.87v2.24a.41.41,0,0,1-.21.36.86.86,0,0,1-.48.13.88.88,0,0,1-.49-.13.41.41,0,0,1-.21-.36v-2.24h-4.11a.5.5,0,0,1-.37-.15A.6.6,0,0,1,224.16,259.52Z" fill="#534741"/>
        <path d="M241.1,260.06c0-.44.23-.65.69-.65s.7.18.7.55a1.48,1.48,0,0,0,.6,1.25,2.56,2.56,0,0,0,1.55.45,2.11,2.11,0,0,0,1.6-.58,2.35,2.35,0,0,0,.57-1.72V259a2.28,2.28,0,0,0-.57-1.68,2.11,2.11,0,0,0-1.58-.57h-2.34c-.43,0-.64-.18-.64-.54a1.23,1.23,0,0,1,.06-.36l.32-4.61c0-.33.14-.49.36-.49h4.74a.37.37,0,0,1,.33.19.86.86,0,0,1,.11.43.9.9,0,0,1-.11.44.39.39,0,0,1-.33.19h-3.9l-.25,3.6h1.65a3.81,3.81,0,0,1,2.57.82,3.22,3.22,0,0,1,1,2.58v.32a3.43,3.43,0,0,1-1,2.69,3.72,3.72,0,0,1-2.56.86,3.83,3.83,0,0,1-2.6-.83A2.59,2.59,0,0,1,241.1,260.06Z" fill="#534741"/>
        <path d="M250.4,259.32v-4.95a3.43,3.43,0,0,1,1-2.72,3.78,3.78,0,0,1,2.62-.86,3.64,3.64,0,0,1,2.57.85,2.67,2.67,0,0,1,.92,2,.56.56,0,0,1-.64.61c-.49,0-.73-.18-.73-.55a1.41,1.41,0,0,0-.62-1.21A2.46,2.46,0,0,0,254,252c-1.46,0-2.19.78-2.19,2.33v2.31a2.85,2.85,0,0,1,2.4-1c2.2,0,3.31,1.1,3.31,3.32v.34a3.48,3.48,0,0,1-1,2.73,3.73,3.73,0,0,1-2.57.86,3.77,3.77,0,0,1-2.58-.86A3.48,3.48,0,0,1,250.4,259.32Zm1.38.09c0,1.56.72,2.35,2.17,2.35s2.16-.79,2.16-2.35v-.35q0-2.25-2.16-2.25a1.89,1.89,0,0,0-2.17,2.1Z" fill="#534741"/>
        <path d="M259.36,253.76v-2.48a.46.46,0,0,1,.2-.34.68.68,0,0,1,.43-.15h5.84a.67.67,0,0,1,.41.15.45.45,0,0,1,.21.34v1.53a1.65,1.65,0,0,1-.23.71l-4.67,9.09a.44.44,0,0,1-.44.23,1,1,0,0,1-.59-.19.55.55,0,0,1-.25-.47.63.63,0,0,1,.06-.27l4.74-8.94V252h-4.33v1.72a.44.44,0,0,1-.2.36.88.88,0,0,1-.49.14.85.85,0,0,1-.48-.14A.42.42,0,0,1,259.36,253.76Z" fill="#534741"/>
        <path d="M268.18,259.53v-.2a2.94,2.94,0,0,1,1.84-3.07,2.46,2.46,0,0,1-1.5-2.58q0-2.9,3.21-2.89t3.19,2.89a2.49,2.49,0,0,1-1.48,2.58,3,3,0,0,1,1.83,3.07v.2a3.16,3.16,0,0,1-1,2.56,4.45,4.45,0,0,1-5.15,0A3.16,3.16,0,0,1,268.18,259.53Zm1.38-.12c0,1.56.72,2.35,2.17,2.35a2.13,2.13,0,0,0,1.6-.59,2.48,2.48,0,0,0,.55-1.76v-.27a2.31,2.31,0,0,0-.56-1.72,2.14,2.14,0,0,0-1.59-.56c-1.45,0-2.17.76-2.17,2.28Zm.31-5.6a1.86,1.86,0,1,0,1.86-1.87A1.66,1.66,0,0,0,269.87,253.81Z" fill="#534741"/>
        <path d="M285.63,260.05c0-.41.22-.61.66-.61s.72.18.72.54a1.45,1.45,0,0,0,.62,1.22,2.45,2.45,0,0,0,1.52.46q2.19,0,2.19-2.34V257a2.83,2.83,0,0,1-2.4,1q-3.31,0-3.31-3.32v-.35a3.49,3.49,0,0,1,1-2.72,4.3,4.3,0,0,1,5.16,0,3.46,3.46,0,0,1,1,2.72v4.95a3.48,3.48,0,0,1-1,2.73,3.85,3.85,0,0,1-2.62.86,3.63,3.63,0,0,1-2.57-.86A2.67,2.67,0,0,1,285.63,260.05Zm1.38-5.41c0,1.5.72,2.25,2.17,2.25a1.88,1.88,0,0,0,2.16-2.1v-.5c0-1.57-.73-2.35-2.17-2.35s-2.16.78-2.16,2.35Z" fill="#534741"/>
        <path d="M295.35,259.32v-4.95a3.49,3.49,0,0,1,1-2.72,4.3,4.3,0,0,1,5.16,0,3.49,3.49,0,0,1,1,2.72v4.95a3.52,3.52,0,0,1-1,2.73,4.3,4.3,0,0,1-5.16,0A3.51,3.51,0,0,1,295.35,259.32Zm1.38,0q0,2.34,2.16,2.34a2.16,2.16,0,0,0,1.6-.58,2.44,2.44,0,0,0,.57-1.76v-4.95a2.41,2.41,0,0,0-.57-1.75,2.12,2.12,0,0,0-1.6-.58c-1.44,0-2.16.78-2.16,2.33Zm1.7-2a.58.58,0,0,1-.19-.45.56.56,0,0,1,.19-.44.63.63,0,0,1,.47-.18.62.62,0,0,1,.46.18.59.59,0,0,1,.18.44.61.61,0,0,1-.18.45.62.62,0,0,1-.46.18A.63.63,0,0,1,298.43,257.28Z" fill="#534741"/>
        <path d="M304.31,253.35a.69.69,0,0,1,.3-.57l1.51-1.8a.64.64,0,0,1,.43-.21.72.72,0,0,1,.42.13.41.41,0,0,1,.19.36v11.06a.41.41,0,0,1-.21.36.84.84,0,0,1-.48.13.88.88,0,0,1-.49-.13.42.42,0,0,1-.2-.36v-9.48l-.61.91a.48.48,0,0,1-.35.18.48.48,0,0,1-.36-.17A.61.61,0,0,1,304.31,253.35Z" fill="#534741"/>
        <path d="M309.59,262.32v-1.6a2.37,2.37,0,0,1,.56-1.46,6.63,6.63,0,0,1,1.34-1.3l1.6-1.19a6.56,6.56,0,0,0,1.38-1.29A2.35,2.35,0,0,0,315,254a2.09,2.09,0,0,0-.52-1.39,2.19,2.19,0,0,0-2.84-.13,1.72,1.72,0,0,0-.52,1.35.5.5,0,0,1-.2.39.8.8,0,0,1-.53.17c-.41,0-.62-.27-.62-.81a2.52,2.52,0,0,1,.93-2,3.38,3.38,0,0,1,2.28-.79,3.45,3.45,0,0,1,2.43.9,3,3,0,0,1,1,2.28,3.4,3.4,0,0,1-.4,1.58,4.49,4.49,0,0,1-1,1.29c-.4.35-.84.7-1.31,1.06l-1.32.94a4.64,4.64,0,0,0-1,.91,1.53,1.53,0,0,0-.4,1v.84H316a.43.43,0,0,1,.34.18.76.76,0,0,1,0,.88.4.4,0,0,1-.34.19h-5.82a.73.73,0,0,1-.42-.14A.41.41,0,0,1,309.59,262.32Z" fill="#534741"/>
        <path d="M326.5,260.11a.72.72,0,0,1,.14-.51.71.71,0,0,1,.5-.13.83.83,0,0,1,.55.13.5.5,0,0,1,.16.41,1.54,1.54,0,0,0,.54,1.14,2.25,2.25,0,0,0,1.62.51,2,2,0,0,0,2.2-2.27v-.31c0-1.34-.73-2-2.2-2-.32,0-.48-.19-.48-.58s.16-.57.48-.57a2.07,2.07,0,0,0,1.43-.43,2,2,0,0,0,.47-1.54c0-1.27-.61-1.91-1.84-1.91a2,2,0,0,0-1.49.46,1.56,1.56,0,0,0-.43,1.1c0,.41-.22.61-.66.61a.79.79,0,0,1-.58-.15.8.8,0,0,1-.14-.56,2.63,2.63,0,0,1,.15-.85,3.24,3.24,0,0,1,.5-.87,2.4,2.4,0,0,1,1.05-.71,4.3,4.3,0,0,1,1.64-.28q3.13,0,3.14,2.92a3.74,3.74,0,0,1-.37,1.75,2,2,0,0,1-1,1,2.57,2.57,0,0,1,1.68,2.62v.31a3.35,3.35,0,0,1-1,2.66,3.85,3.85,0,0,1-2.6.86,3.64,3.64,0,0,1-2.6-.86A2.61,2.61,0,0,1,326.5,260.11Z" fill="#534741"/>
        <path d="M335.15,259.52a.54.54,0,0,1,.09-.31l4.06-8a.67.67,0,0,1,.62-.39.81.81,0,0,1,.46.15.5.5,0,0,1,.22.39.41.41,0,0,1-.07.23l-3.6,7.17h2.85V256a.37.37,0,0,1,.2-.35.88.88,0,0,1,.49-.13.84.84,0,0,1,.48.13.37.37,0,0,1,.21.35v2.73H342a.42.42,0,0,1,.36.2.86.86,0,0,1,.13.48.79.79,0,0,1-.15.46.4.4,0,0,1-.34.21h-.87v2.24a.41.41,0,0,1-.21.36.84.84,0,0,1-.48.13.88.88,0,0,1-.49-.13.4.4,0,0,1-.2-.36v-2.24h-4.12a.5.5,0,0,1-.37-.15A.6.6,0,0,1,335.15,259.52Z" fill="#534741"/>
        <path d="M343.87,260.06c0-.44.23-.65.69-.65s.69.18.69.55a1.49,1.49,0,0,0,.61,1.25,2.54,2.54,0,0,0,1.55.45,2.12,2.12,0,0,0,1.6-.58,2.35,2.35,0,0,0,.57-1.72V259a2.28,2.28,0,0,0-.57-1.68,2.15,2.15,0,0,0-1.59-.57h-2.33c-.43,0-.64-.18-.64-.54a1.23,1.23,0,0,1,.06-.36l.32-4.61c0-.33.14-.49.36-.49h4.73a.35.35,0,0,1,.33.19.77.77,0,0,1,.12.43.81.81,0,0,1-.12.44.36.36,0,0,1-.33.19H346l-.25,3.6h1.64a3.82,3.82,0,0,1,2.58.82,3.22,3.22,0,0,1,1,2.58v.32a3.43,3.43,0,0,1-1,2.69,3.75,3.75,0,0,1-2.57.86,3.82,3.82,0,0,1-2.59-.83A2.59,2.59,0,0,1,343.87,260.06Z" fill="#534741"/>
        <path d="M353.16,259.32v-4.95a3.46,3.46,0,0,1,1-2.72,3.82,3.82,0,0,1,2.63-.86,3.61,3.61,0,0,1,2.56.85,2.64,2.64,0,0,1,.92,2c0,.4-.21.61-.64.61s-.72-.18-.72-.55a1.44,1.44,0,0,0-.62-1.21,2.47,2.47,0,0,0-1.54-.46c-1.45,0-2.18.78-2.18,2.33v2.31a2.83,2.83,0,0,1,2.4-1c2.2,0,3.3,1.1,3.3,3.32v.34a3.51,3.51,0,0,1-1,2.73,4.29,4.29,0,0,1-5.15,0A3.48,3.48,0,0,1,353.16,259.32Zm1.39.09c0,1.56.72,2.35,2.17,2.35s2.15-.79,2.15-2.35v-.35c0-1.5-.72-2.25-2.15-2.25a1.89,1.89,0,0,0-2.17,2.1Z" fill="#534741"/>
      </g>
      <rect x="284.4" y="185.42" width="65" height="8" fill="#6492d1" opacity="0.1"/>
      <rect x="284.4" y="197.42" width="65" height="8" fill="#6492d1" opacity="0.1"/>
    </g>
  </g>
</svg>
