<svg xmlns="http://www.w3.org/2000/svg" viewBox="0 0 606.76 522.74">
  <title>mobilesubtitle</title>
  <g>
    <path d="M593.76,339.83H310.41l-7-14.32-7,14.32H13a12,12,0,0,0-12,12V508.32a12,12,0,0,0,12,12H593.76a12,12,0,0,0,12-12V351.83A12,12,0,0,0,593.76,339.83Z" fill="#fffaf7" stroke="#534741" stroke-linecap="round" stroke-linejoin="round" stroke-width="2"/>
    <path d="M158.93,68c20-12,37.39-28,57-40.55,26.7-17.08,58-27.85,89.64-27.43S369.3,12.68,390.9,35.88C406.86,53,416.59,75.24,422,98.05c3.28,13.92,5,28.41,2.88,42.55-3.57,23.55-17.59,44.21-33.37,62a311.08,311.08,0,0,1-57.08,50.25c-11,7.53-22.56,14.45-35.19,18.7-13.69,4.62-28.31,6-42.75,5.56-27.84-.85-55.79-8.6-78.74-24.39s-40.54-39.94-46.13-67.23c-3.15-15.4-2.51-31.32-1.11-47,2.4-26.72,8.65-56.08,30.41-71.77" fill="#e9e0db"/>
    <polygon points="343.35 141.14 343.35 155.6 352.38 155.6 352.38 141.14 356.45 141.14 347.87 126.27 339.28 141.14 343.35 141.14" fill="#e9e0db"/>
    <text transform="translate(45.76 394.82)" font-size="26" fill="#333" font-family="PingFangTC-Light, PingFangTC Light-B5pc-H">為了要跟上時代衝上雲端，不使用雲端發票的<tspan x="91" y="42">你簡直就是還活在上個年代！</tspan><tspan x="78" y="84">現在就跟我一起使用雲端發票！</tspan></text>
    <g>
      <line x1="178.21" y1="212.91" x2="178.21" y2="217.96" fill="#fff" stroke="#575956" stroke-linecap="round" stroke-linejoin="round" stroke-width="2"/>
      <line x1="178.21" y1="223.18" x2="178.21" y2="228.23" fill="#fff" stroke="#575956" stroke-linecap="round" stroke-linejoin="round" stroke-width="2"/>
      <line x1="185.87" y1="220.57" x2="180.82" y2="220.57" fill="#fff" stroke="#575956" stroke-linecap="round" stroke-linejoin="round" stroke-width="2"/>
      <line x1="175.6" y1="220.57" x2="170.55" y2="220.57" fill="#fff" stroke="#575956" stroke-linecap="round" stroke-linejoin="round" stroke-width="2"/>
    </g>
    <g>
      <line x1="272.29" y1="50.68" x2="272.29" y2="55.73" fill="#fff" stroke="#575956" stroke-linecap="round" stroke-linejoin="round" stroke-width="2"/>
      <line x1="272.29" y1="60.95" x2="272.29" y2="66" fill="#fff" stroke="#575956" stroke-linecap="round" stroke-linejoin="round" stroke-width="2"/>
      <line x1="279.95" y1="58.34" x2="274.9" y2="58.34" fill="#fff" stroke="#575956" stroke-linecap="round" stroke-linejoin="round" stroke-width="2"/>
      <line x1="269.68" y1="58.34" x2="264.63" y2="58.34" fill="#fff" stroke="#575956" stroke-linecap="round" stroke-linejoin="round" stroke-width="2"/>
    </g>
    <g>
      <line x1="155.68" y1="58.34" x2="155.68" y2="63.39" fill="#fff" stroke="#575956" stroke-linecap="round" stroke-linejoin="round" stroke-width="2"/>
      <line x1="155.68" y1="68.61" x2="155.68" y2="73.66" fill="#fff" stroke="#575956" stroke-linecap="round" stroke-linejoin="round" stroke-width="2"/>
      <line x1="163.35" y1="66" x2="158.29" y2="66" fill="#fff" stroke="#575956" stroke-linecap="round" stroke-linejoin="round" stroke-width="2"/>
      <line x1="153.08" y1="66" x2="148.02" y2="66" fill="#fff" stroke="#575956" stroke-linecap="round" stroke-linejoin="round" stroke-width="2"/>
    </g>
    <g>
      <path d="M282,84.61H409.71a4.83,4.83,0,0,1,4.83,4.83V189.55a0,0,0,0,1,0,0H277.21a0,0,0,0,1,0,0V89.44A4.83,4.83,0,0,1,282,84.61Z" fill="#fffaf7" stroke="#534741" stroke-miterlimit="10" stroke-width="2"/>
      <line x1="277.21" y1="96.27" x2="414.54" y2="96.27" fill="#fffaf7" stroke="#534741" stroke-miterlimit="10" stroke-width="2"/>
    </g>
    <circle cx="283.54" cy="90.44" r="2" fill="#534741"/>
    <circle cx="291.38" cy="90.44" r="2" fill="#534741"/>
    <circle cx="299.21" cy="90.44" r="2" fill="#534741"/>
    <path d="M359.33,156.22h32c.07-.75.11-1.51.11-2.27a24,24,0,0,0-20.33-23.71A28.39,28.39,0,0,0,321,136.72c-.38,0-.76,0-1.15,0a19.53,19.53,0,0,0-19.53,19.54h37.35" fill="#e9e0db"/>
    <path d="M359.33,156.22h32c.07-.75.11-1.51.11-2.27a24,24,0,0,0-20.33-23.71A28.39,28.39,0,0,0,321,136.72c-.38,0-.76,0-1.15,0a19.53,19.53,0,0,0-19.53,19.54h37.35" fill="none" stroke="#534741" stroke-miterlimit="10" stroke-width="2"/>
    <rect x="282.06" y="96.27" width="127.96" height="89.39" fill="none" stroke="#534741" stroke-miterlimit="10"/>
    <g>
      <path d="M273.23,247s-47.73-28.13-61.35-55.45L285.05,148l27.1,69.33Z" fill="#fffaf7"/>
      <g>
        <path d="M379.36,230.27s-72.44,61.38-88.92,66.67c0,0-13.36-7.19-17.21-32.16,0,0,45.6-38.16,71.27-55.61C344.5,209.17,361.82,201.7,379.36,230.27Z" fill="#6492d1"/>
        <g>
          <rect x="185.62" y="63.94" width="86.31" height="130.91" rx="7.92" ry="7.92" transform="translate(-33.89 120.05) rotate(-27.46)" fill="#6492d1" stroke="#534741" stroke-miterlimit="10" stroke-width="2"/>
          <rect x="191.11" y="76.32" width="71.11" height="98.03" transform="translate(-32.26 118.62) rotate(-27.46)" fill="#fffaf7" stroke="#534741" stroke-miterlimit="10" stroke-width="2"/>
          <rect x="194.35" y="79.45" width="64.64" height="91.77" transform="translate(-32.26 118.62) rotate(-27.46)" fill="none" stroke="#534741" stroke-miterlimit="10"/>
          <rect x="238.72" y="172.54" width="29.92" height="9.58" rx="4.26" ry="4.26" transform="translate(-53.19 136.93) rotate(-27.46)" fill="none" stroke="#534741" stroke-miterlimit="10" stroke-width="2"/>
        </g>
        <g>
          <rect x="199.76" y="111.58" width="3.58" height="26.88" transform="translate(-34.94 107.01) rotate(-27.46)" fill="#534741"/>
          <rect x="228.79" y="96.49" width="3.58" height="26.88" transform="translate(-24.72 118.69) rotate(-27.46)" fill="#534741"/>
          <rect x="204.63" y="109.51" width="1.79" height="26.88" transform="translate(-33.54 108.61) rotate(-27.46)" fill="#534741"/>
          <rect x="207.81" y="107.86" width="1.79" height="26.88" transform="translate(-32.42 109.89) rotate(-27.46)" fill="#534741"/>
          <rect x="210.99" y="106.21" width="1.79" height="26.88" transform="translate(-31.3 111.17) rotate(-27.46)" fill="#534741"/>
          <rect x="214.22" y="104.76" width="0.9" height="26.88" transform="translate(-30.32 112.29) rotate(-27.46)" fill="#534741"/>
          <rect x="215.73" y="103.74" width="1.79" height="26.88" transform="translate(-29.63 113.08) rotate(-27.46)" fill="#534741"/>
          <rect x="218.91" y="102.09" width="1.79" height="26.88" transform="translate(-28.51 114.36) rotate(-27.46)" fill="#534741"/>
          <rect x="222.09" y="100.44" width="1.79" height="26.88" transform="translate(-27.39 115.64) rotate(-27.46)" fill="#534741"/>
          <rect x="225.32" y="98.99" width="0.9" height="26.88" transform="translate(-26.41 116.76) rotate(-27.46)" fill="#534741"/>
          <rect x="234.21" y="94.38" width="0.9" height="26.88" transform="translate(-23.28 120.33) rotate(-27.46)" fill="#534741"/>
          <rect x="235.72" y="93.36" width="1.79" height="26.88" transform="translate(-22.59 121.12) rotate(-27.46)" fill="#534741"/>
          <rect x="238.9" y="91.7" width="1.79" height="26.88" transform="translate(-21.47 122.4) rotate(-27.46)" fill="#534741"/>
        </g>
        <path d="M283.19,185.28c-26.39-49.21-9.38-51.76-13.82-71.71s10.82-44.48,16.12-11.39S329,207.65,329,207.65L273.23,247" fill="#fffaf7" stroke="#534741" stroke-miterlimit="10" stroke-width="2"/>
        <path d="M205.85,189.65s37.84,42.69,63.42,55.35" fill="none" stroke="#534741" stroke-miterlimit="10" stroke-width="2"/>
        <rect x="193.8" y="171.32" width="33.79" height="16.25" rx="7.23" ry="7.23" transform="translate(-46.31 76.77) rotate(-18.64)" fill="#fffaf7" stroke="#534741" stroke-miterlimit="10" stroke-width="2"/>
        <rect x="201.04" y="186.71" width="29.11" height="16.25" rx="7.23" ry="7.23" transform="translate(-50.97 79.14) rotate(-18.64)" fill="#fffaf7" stroke="#534741" stroke-miterlimit="10" stroke-width="2"/>
        <rect x="186.38" y="156.06" width="33.79" height="16.25" rx="7.23" ry="7.23" transform="translate(-41.82 73.6) rotate(-18.64)" fill="#fffaf7" stroke="#534741" stroke-miterlimit="10" stroke-width="2"/>
        <rect x="178.95" y="140.78" width="33.79" height="16.25" rx="7.23" ry="7.23" transform="translate(-37.32 70.42) rotate(-18.64)" fill="#fffaf7" stroke="#534741" stroke-miterlimit="10" stroke-width="2"/>
        <path d="M273.9,265.14l-10.4-8.9c7.25-10.57,72.57-54.52,72.57-54.52l9.1,7.8S276.17,260.94,273.9,265.14Z" fill="#fffaf7" stroke="#534741" stroke-linejoin="round" stroke-width="2"/>
      </g>
      <path d="M345.17,209.52s12.94-6.77,34.19,20.75" fill="none" stroke="#534741" stroke-linejoin="round" stroke-width="2"/>
      <path d="M273.9,265.14s.85,17.23,16.54,31.8" fill="none" stroke="#534741" stroke-linejoin="round" stroke-width="2"/>
    </g>
  </g>
</svg>
