<svg xmlns="http://www.w3.org/2000/svg" viewBox="0 0 763.55 296.94">
  <title>sub-title</title>
  <g>
    <path d="M465.85,68c20-12,37.39-28,57-40.55C549.6,10.36,580.85-.41,612.54,0s63.68,12.67,85.28,35.87c16,17.14,25.69,39.36,31,62.17,3.27,13.92,5,28.41,2.88,42.55-3.58,23.55-17.59,44.21-33.37,62a311.41,311.41,0,0,1-57.08,50.25c-11,7.53-22.56,14.45-35.19,18.7-13.69,4.62-28.31,6-42.75,5.56-27.84-.85-55.79-8.6-78.74-24.39s-40.55-39.94-46.13-67.23c-3.16-15.4-2.52-31.32-1.11-47,2.4-26.72,8.65-56.08,30.41-71.77" fill="#eae1dc"/>
    <text transform="translate(105.32 118.41)" font-size="16" fill="#333" font-family="'PingFang TC','HeiTi TC','Microsoft JhengHei',sans-serif">為了要跟上時代衝上雲端，不使用雲端<tspan x="0" y="26">發票的你簡直就是還活在上個年代！</tspan><tspan x="0" y="52">現在就跟我一起使用雲端發票！</tspan></text>
    <polygon points="650.27 141.14 650.27 155.6 659.3 155.6 659.3 141.14 663.37 141.14 654.78 126.27 646.2 141.14 650.27 141.14" fill="#eae1dc"/>
    <g>
      <line x1="485.13" y1="212.91" x2="485.13" y2="217.96" fill="#fff" stroke="#575956" stroke-linecap="round" stroke-linejoin="round" stroke-width="2"/>
      <line x1="485.13" y1="223.18" x2="485.13" y2="228.23" fill="#fff" stroke="#575956" stroke-linecap="round" stroke-linejoin="round" stroke-width="2"/>
      <line x1="492.79" y1="220.57" x2="487.74" y2="220.57" fill="#fff" stroke="#575956" stroke-linecap="round" stroke-linejoin="round" stroke-width="2"/>
      <line x1="482.52" y1="220.57" x2="477.47" y2="220.57" fill="#fff" stroke="#575956" stroke-linecap="round" stroke-linejoin="round" stroke-width="2"/>
    </g>
    <g>
      <line x1="579.21" y1="50.68" x2="579.21" y2="55.73" fill="#fff" stroke="#575956" stroke-linecap="round" stroke-linejoin="round" stroke-width="2"/>
      <line x1="579.21" y1="60.95" x2="579.21" y2="66" fill="#fff" stroke="#575956" stroke-linecap="round" stroke-linejoin="round" stroke-width="2"/>
      <line x1="586.87" y1="58.34" x2="581.82" y2="58.34" fill="#fff" stroke="#575956" stroke-linecap="round" stroke-linejoin="round" stroke-width="2"/>
      <line x1="576.6" y1="58.34" x2="571.55" y2="58.34" fill="#fff" stroke="#575956" stroke-linecap="round" stroke-linejoin="round" stroke-width="2"/>
    </g>
    <g>
      <line x1="462.6" y1="58.34" x2="462.6" y2="63.39" fill="#fff" stroke="#575956" stroke-linecap="round" stroke-linejoin="round" stroke-width="2"/>
      <line x1="462.6" y1="68.61" x2="462.6" y2="73.66" fill="#fff" stroke="#575956" stroke-linecap="round" stroke-linejoin="round" stroke-width="2"/>
      <line x1="470.26" y1="66" x2="465.21" y2="66" fill="#fff" stroke="#575956" stroke-linecap="round" stroke-linejoin="round" stroke-width="2"/>
      <line x1="459.99" y1="66" x2="454.94" y2="66" fill="#fff" stroke="#575956" stroke-linecap="round" stroke-linejoin="round" stroke-width="2"/>
    </g>
    <g>
      <path d="M589,84.61H716.63a4.83,4.83,0,0,1,4.83,4.83V189.55a0,0,0,0,1,0,0H584.13a0,0,0,0,1,0,0V89.44A4.83,4.83,0,0,1,589,84.61Z" fill="#fffbf8" stroke="#534741" stroke-width="2"/>
      <line x1="584.13" y1="96.27" x2="721.46" y2="96.27" fill="#fffbf8" stroke="#534741" stroke-width="2"/>
    </g>
    <circle cx="590.46" cy="90.44" r="2" fill="#534741"/>
    <circle cx="598.29" cy="90.44" r="2" fill="#534741"/>
    <circle cx="606.13" cy="90.44" r="2" fill="#534741"/>
    <path d="M666.24,156.22h32c.07-.75.11-1.51.11-2.27A24,24,0,0,0,678,130.24a28.39,28.39,0,0,0-50.11,6.48c-.38,0-.76,0-1.15,0a19.54,19.54,0,0,0-19.54,19.54h37.35" fill="#eae1dc"/>
    <path d="M666.24,156.22h32c.07-.75.11-1.51.11-2.27A24,24,0,0,0,678,130.24a28.39,28.39,0,0,0-50.11,6.48c-.38,0-.76,0-1.15,0a19.54,19.54,0,0,0-19.54,19.54h37.35" fill="none" stroke="#534741" stroke-width="2"/>
    <path d="M425,153.76,405.18,142V65.39a12,12,0,0,0-12-12H86.87a12,12,0,0,0-12,12v137.4a12,12,0,0,0,12,12H393.18a12,12,0,0,0,12-12V154Z" fill="none" stroke="#534741" stroke-linejoin="round" stroke-width="2"/>
    <rect x="588.98" y="96.27" width="127.96" height="89.39" fill="none" stroke="#534741"/>
    <g>
      <path d="M580.14,247s-47.73-28.13-61.34-55.45L592,148l27.1,69.33Z" fill="#fffbf8"/>
      <g>
        <path d="M686.28,230.27s-72.44,61.38-88.92,66.67c0,0-13.36-7.19-17.22-32.16,0,0,45.61-38.16,71.28-55.61C651.42,209.17,668.74,201.7,686.28,230.27Z" fill="#6493d2"/>
        <g>
          <rect x="492.54" y="63.94" width="86.31" height="130.91" rx="7.92" ry="7.92" transform="translate(0.68 261.56) rotate(-27.46)" fill="#6493d2" stroke="#534741" stroke-width="2"/>
          <rect x="498.02" y="76.32" width="71.11" height="98.03" transform="translate(2.31 260.13) rotate(-27.46)" fill="#fffbf8" stroke="#534741" stroke-width="2"/>
          <rect x="501.26" y="79.45" width="64.64" height="91.77" transform="translate(2.31 260.13) rotate(-27.46)" fill="none" stroke="#534741"/>
          <rect x="545.64" y="172.54" width="29.92" height="9.58" rx="4.26" ry="4.26" transform="translate(-18.62 278.44) rotate(-27.46)" fill="none" stroke="#534741" stroke-width="2"/>
        </g>
        <g>
          <rect x="506.67" y="111.58" width="3.58" height="26.88" transform="translate(-0.37 248.51) rotate(-27.46)" fill="#534741"/>
          <rect x="535.71" y="96.49" width="3.58" height="26.88" transform="translate(9.85 260.2) rotate(-27.46)" fill="#534741"/>
          <rect x="511.54" y="109.51" width="1.79" height="26.88" transform="translate(1.03 250.11) rotate(-27.46)" fill="#534741"/>
          <rect x="514.72" y="107.86" width="1.79" height="26.88" transform="translate(2.15 251.39) rotate(-27.46)" fill="#534741"/>
          <rect x="517.9" y="106.21" width="1.79" height="26.88" transform="translate(3.27 252.67) rotate(-27.46)" fill="#534741"/>
          <rect x="521.13" y="104.76" width="0.9" height="26.88" transform="translate(4.25 253.79) rotate(-27.46)" fill="#534741"/>
          <rect x="522.65" y="103.74" width="1.79" height="26.88" transform="translate(4.94 254.58) rotate(-27.46)" fill="#534741"/>
          <rect x="525.83" y="102.09" width="1.79" height="26.88" transform="translate(6.06 255.86) rotate(-27.46)" fill="#534741"/>
          <rect x="529.01" y="100.44" width="1.79" height="26.88" transform="translate(7.18 257.14) rotate(-27.46)" fill="#534741"/>
          <rect x="532.24" y="98.99" width="0.9" height="26.88" transform="translate(8.16 258.26) rotate(-27.46)" fill="#534741"/>
          <rect x="541.13" y="94.38" width="0.9" height="26.88" transform="translate(11.29 261.84) rotate(-27.46)" fill="#534741"/>
          <rect x="542.64" y="93.36" width="1.79" height="26.88" transform="translate(11.98 262.63) rotate(-27.46)" fill="#534741"/>
          <rect x="545.82" y="91.7" width="1.79" height="26.88" transform="translate(13.1 263.91) rotate(-27.46)" fill="#534741"/>
        </g>
        <path d="M590.11,185.28c-26.4-49.21-9.38-51.76-13.82-71.71s10.82-44.48,16.12-11.39S635.9,207.65,635.9,207.65L580.14,247" fill="#fffbf8" stroke="#534741" stroke-width="2"/>
        <path d="M512.77,189.65s37.84,42.69,63.41,55.35" fill="none" stroke="#534741" stroke-width="2"/>
        <rect x="500.72" y="171.32" width="33.79" height="16.25" rx="7.23" ry="7.23" transform="translate(-30.2 174.88) rotate(-18.64)" fill="#fffbf8" stroke="#534741" stroke-width="2"/>
        <rect x="507.96" y="186.71" width="29.11" height="16.25" rx="7.23" ry="7.23" transform="translate(-34.87 177.25) rotate(-18.64)" fill="#fffbf8" stroke="#534741" stroke-width="2"/>
        <rect x="493.3" y="156.06" width="33.79" height="16.25" rx="7.23" ry="7.23" transform="translate(-25.71 171.71) rotate(-18.64)" fill="#fffbf8" stroke="#534741" stroke-width="2"/>
        <rect x="485.87" y="140.78" width="33.79" height="16.25" rx="7.23" ry="7.23" transform="translate(-21.22 168.53) rotate(-18.64)" fill="#fffbf8" stroke="#534741" stroke-width="2"/>
        <path d="M580.82,265.14l-10.4-8.9c7.25-10.57,72.57-54.52,72.57-54.52l9.1,7.8S583.09,260.94,580.82,265.14Z" fill="#fffbf8" stroke="#534741" stroke-linejoin="round" stroke-width="2"/>
      </g>
      <path d="M652.09,209.52s12.94-6.77,34.19,20.75" fill="none" stroke="#534741" stroke-linejoin="round" stroke-width="2"/>
      <path d="M580.82,265.14s.85,17.23,16.54,31.8" fill="none" stroke="#534741" stroke-linejoin="round" stroke-width="2"/>
    </g>
  </g>
</svg>
