<svg xmlns="http://www.w3.org/2000/svg" viewBox="0 0 427 330">
  <title>winning</title>
  <g>
    <g opacity="0.1">
      <path d="M94.89,94.38c20-12,37.4-28,57.06-40.55C178.64,36.74,209.89,26,241.58,26.4s63.68,12.67,85.28,35.87c16,17.14,25.69,39.36,31.06,62.17,3.27,13.92,5,28.41,2.87,42.55-3.57,23.55-17.58,44.21-33.37,62a311.08,311.08,0,0,1-57.08,50.25c-11,7.53-22.56,14.44-35.18,18.7-13.69,4.62-28.32,6-42.76,5.55-27.84-.84-55.79-8.59-78.74-24.38S73.12,239.2,67.53,211.91c-3.15-15.39-2.51-31.31-1.11-47,2.4-26.72,8.65-56.07,30.41-71.76" fill="#6493d2"/>
    </g>
    <g>
      <rect x="115.94" y="37.42" width="171" height="264" rx="9.07" ry="9.07" fill="#eae1dc" stroke="#534741" stroke-width="2"/>
      <rect x="130.94" y="60.58" width="141" height="202.84" fill="#fffbf8" stroke="#534741" stroke-width="2"/>
      <rect x="136.44" y="64.92" width="130" height="194.16" fill="#fffbf8" stroke="#534741"/>
      <circle cx="200.94" cy="281.42" r="9.42" fill="#fffbf8" stroke="#534741" stroke-width="2"/>
      <circle cx="200.94" cy="281.42" r="7.02" fill="#fffbf8" stroke="#534741"/>
      <rect x="186.67" y="47.92" width="31.14" height="5" fill="#fffbf8" stroke="#534741" stroke-width="2"/>
      <circle cx="177.09" cy="50.42" r="2.99" fill="#534741"/>
      <g>
        <rect x="164.16" y="188.87" width="74.53" height="45.46" fill="#fffbf8" stroke="#534741" stroke-width="2"/>
        <polyline points="164.16 188.87 201.04 211.92 238.69 188.87" fill="none" stroke="#534741" stroke-width="2"/>
      </g>
      <g>
        <path d="M246.06,126.21a45.12,45.12,0,1,0-49.59,44.9l4.47,7.74,4.47-7.74A45.12,45.12,0,0,0,246.06,126.21Z" fill="#fffbf8" stroke="#534741" stroke-width="2"/>
        <circle cx="200.94" cy="125.38" r="24.23" fill="#6493d2" stroke="#534741" stroke-width="2"/>
        <text transform="translate(192.77 134.6)" font-size="29.37" fill="#fff" font-family="ArialMT, Arial">$</text>
      </g>
    </g>
  </g>
</svg>
