<svg xmlns="http://www.w3.org/2000/svg" viewBox="0 0 691 406">
  <title>q4</title>
  <g>
    <path d="M310.54,22.37s34.71-13.71,70.35,53.22c0,0-.06,2.9-20.55,12.58" fill="none" stroke="#534741" stroke-width="2"/>
    <polygon points="171.34 335.02 595.08 191.12 595.08 247.86 171.34 392.12 171.34 335.02" fill="#e9e0db"/>
    <path d="M254.79,17.07C252.54,33.4,240.4,37.42,240.4,37.42,207.52,49.15,192.47,71.9,185,93.7a105.84,105.84,0,0,0,.63,70.6c6.3,17.12,24.22,33.12,42.72,28.14,23.64-6.36,34.79-50.26,34.79-50.26" fill="none" stroke="#534741" stroke-width="2"/>
    <path d="M246.59,35.51c18.06,9.5,57.54,12.24,70.35-13.14" fill="none" stroke="#534741" stroke-width="2"/>
    <path d="M248.23,31.37c16.69,8.78,46.15,13.76,66.65-9.43" fill="none" stroke="#534741" stroke-width="2"/>
    <line x1="595.08" y1="191.12" x2="171.34" y2="335.02" fill="none" stroke="#534741" stroke-width="2"/>
    <g>
      <ellipse cx="390.08" cy="214.94" rx="10.12" ry="5.41" fill="#fffaf7" stroke="#e9e0db" stroke-width="2"/>
      <ellipse cx="390.08" cy="211.81" rx="10.12" ry="5.41" fill="#fffaf7" stroke="#e9e0db" stroke-width="2"/>
    </g>
    <g>
      <ellipse cx="393.13" cy="177.6" rx="10.12" ry="5.41" fill="#fffaf7" stroke="#e9e0db" stroke-width="2"/>
      <ellipse cx="393.13" cy="174.47" rx="10.12" ry="5.41" fill="#fffaf7" stroke="#e9e0db" stroke-width="2"/>
    </g>
    <g>
      <ellipse cx="373.66" cy="187.81" rx="10.12" ry="5.41" fill="#fffaf7" stroke="#e9e0db" stroke-width="2"/>
      <ellipse cx="373.66" cy="184.68" rx="10.12" ry="5.41" fill="#fffaf7" stroke="#e9e0db" stroke-width="2"/>
    </g>
    <g>
      <ellipse cx="400.21" cy="195.64" rx="10.12" ry="5.41" fill="#fffaf7" stroke="#e9e0db" stroke-width="2"/>
      <ellipse cx="400.21" cy="192.51" rx="10.12" ry="5.41" fill="#fffaf7" stroke="#e9e0db" stroke-width="2"/>
    </g>
    <line x1="416.99" y1="198.8" x2="448.61" y2="209.99" fill="#fffaf7" stroke="#e9e0db" stroke-linecap="round" stroke-linejoin="round"/>
    <path d="M251,186c6.87-85.66-15.15-144.26-15.15-144.26l8.06-4.22s13.89,29.4,17.69,57.93c0,0,69.6-13.55,86.65-24.6,0,0-14.67-39-24.82-49.62-.28-.3,5.53-3.21,12.22,2.89,9.33,8.51,40.48,79.54,43.87,119.63" fill="#ff921e"/>
    <path d="M247,186.77c6.86-85.66-15.15-144.26-15.15-144.26l8.06-4.22s13.89,29.4,17.69,57.93c0,0,69.59-13.55,86.65-24.6,0,0-14.67-39-24.82-49.62-.29-.3,5.53-3.21,12.22,2.89,9.32,8.51,40.48,79.54,43.87,119.63" fill="none" stroke="#534741" stroke-width="2"/>
    <path d="M379,72.74s-4.21,6.15-19.2,11.23" fill="none" stroke="#534741"/>
    <line x1="508.09" y1="99.1" x2="95.92" y2="239.16" fill="none" stroke="#534741" stroke-width="2"/>
    <path d="M285,35.77s-5.53,11.3-5.24,18c0,0-37.37-8.39-43-13.82,0,0,5.22-8.86,12.34-10.77C249.1,29.15,280,33,285,35.77Z" fill="#fffaf7" stroke="#534741" stroke-width="2"/>
    <path d="M238,38s26.11,11.13,41.66,12.56" fill="none" stroke="#534741"/>
    <path d="M293.19,33.53l14.34,13.8s19.25-7,25.83-19.73c0,0-11.51-8-18.31-8.13Z" fill="#fffaf7" stroke="#534741" stroke-width="2"/>
    <path d="M368.89,56.06s21.93,25.63,30.25,80.06" fill="none" stroke="#534741" stroke-width="2"/>
    <g>
      <polygon points="416.99 141.69 449.77 153.46 449.77 215.07 416.99 203.19 416.99 141.69" fill="#fffaf7" stroke="#e9e0db" stroke-linecap="round" stroke-linejoin="round" stroke-width="2"/>
      <polygon points="577.47 110.1 449.77 153.46 449.77 215.07 577.47 171.59 577.47 110.1" fill="#fffaf7" stroke="#e9e0db" stroke-linecap="round" stroke-linejoin="round" stroke-width="2"/>
      <polygon points="416.99 141.69 449.77 153.46 577.47 110.1 544.69 97.7 416.99 141.69" fill="#fffaf7" stroke="#e9e0db" stroke-linecap="round" stroke-linejoin="round" stroke-width="2"/>
    </g>
    <g>
      <polygon points="433.42 50.3 449.52 56.06 449.52 148.66 433.42 142.81 433.42 50.3" fill="#fffaf7" stroke="#e9e0db" stroke-linecap="round" stroke-linejoin="round" stroke-width="2"/>
      <polygon points="564.32 17.07 449.52 56.06 449.52 148.66 564.32 109.58 564.32 17.07" fill="#fffaf7" stroke="#e9e0db" stroke-linecap="round" stroke-linejoin="round" stroke-width="2"/>
      <polygon points="558.64 24.89 455.2 60.02 455.2 140.84 558.64 105.63 558.64 24.89" fill="#fffaf7" stroke="#e9e0db" stroke-width="2"/>
      <polygon points="433.42 50.3 449.52 56.06 564.32 17.07 548.23 10.74 433.42 50.3" fill="#fffaf7" stroke="#e9e0db" stroke-linecap="round" stroke-linejoin="round" stroke-width="2"/>
    </g>
    <line x1="449.52" y1="209.62" x2="577.47" y2="166.52" fill="none" stroke="#e9e0db" stroke-linecap="round" stroke-linejoin="round"/>
    <polygon points="555.7 29.61 458.14 61.88 458.14 136.12 555.7 103.77 555.7 29.61" fill="#fffaf7" stroke="#e9e0db"/>
    <path d="M332.49,30.32s32,53.8,39.58,115.27" fill="#ff921e" stroke="#534741"/>
    <path d="M238.65,42.32s16,37.17,15.5,55.38L285,90.32" fill="none" stroke="#534741"/>
    <rect x="327.6" y="84.43" width="24.6" height="10.38" transform="translate(-10.77 114.05) rotate(-18.76)" fill="#e9e0db" stroke="#534741" stroke-width="2"/>
    <path d="M206.54,152s20.63-36.75,36.62-36.75c31.35,0,36,9.32,4.5,61.07" fill="#fffaf7" stroke="#534741" stroke-width="2"/>
    <g>
      <polygon points="265.25 160.56 260.39 158.43 258.56 150.43 263.36 152.29 265.25 160.56" fill="#ff921e" stroke="#534741" stroke-linecap="round" stroke-linejoin="round" stroke-width="2"/>
      <path d="M258.56,150.43s.52-5.85-2.41-8.37-47.63-5.34-50.59-7.93-2.25-7.55-2.25-7.55l60.05,6.07-.07,19.3Z" fill="#fffaf7" stroke="#534741" stroke-linecap="round" stroke-linejoin="round" stroke-width="2"/>
      <path d="M300.56,129.2s-2.89-11.58-24.13-11.76l-62.7-4.21S200.81,124,203.62,128s45.74,6.88,51.5,8.88c3.54,1.22,8.3,3.57,8.17,15.11Z" fill="#fffaf7" stroke="#534741" stroke-linecap="round" stroke-linejoin="round" stroke-width="2"/>
      <g>
        <polygon points="300.56 129.2 263.29 151.95 265.25 160.56 302.51 137.79 300.56 129.2" fill="#ff921e" stroke="#534741" stroke-linecap="round" stroke-linejoin="round" stroke-width="2"/>
        <polyline points="302.06 135.8 264.72 158.24 259.91 156.32" fill="none" stroke="#534741"/>
      </g>
    </g>
    <path d="M277.45,115.48c3.9-5.35-9.18-9.77-15.66-11.24s-21-1.91-26.94,1.09a76,76,0,0,0-12,7.28,28.11,28.11,0,0,0-8.68,10.78,11.07,11.07,0,0,0,1.88,11.34,12.55,12.55,0,0,0,5.31,2.58c2,.37,7.22,1.31,9.56.68,0,0,1.11,3.73,8.68,1.45,0,0,2.63,3.8,8.16,1.66,0,0,22.92-25.18,25.86-24.62S276.29,117.07,277.45,115.48Z" fill="#fffaf7" stroke="#534741" stroke-width="2"/>
    <path d="M178.91,129.2s14.33-3.64,24.4-2.62" fill="#fffaf7" stroke="#534741" stroke-width="2"/>
    <line x1="261.91" y1="157.94" x2="261.91" y2="237.91" fill="#fffaf7" stroke="#534741" stroke-linecap="round" stroke-linejoin="round" stroke-width="2"/>
    <g>
      <path d="M365.56,345.32s-47.73-28.12-61.35-55.45l73.17-43.55,27.1,69.32Z" fill="#fffaf7"/>
      <g>
        <path d="M471.69,328.58S399.25,390,382.77,395.26c0,0-13.36-7.2-17.21-32.16,0,0,45.6-38.17,71.27-55.61C436.83,307.49,454.15,300,471.69,328.58Z" fill="#6492d1"/>
        <g>
          <rect x="277.95" y="162.26" width="86.31" height="130.91" rx="7.92" ry="7.92" transform="translate(-68.82 173.69) rotate(-27.46)" fill="#6492d1" stroke="#534741" stroke-width="2"/>
          <rect x="283.44" y="174.63" width="71.11" height="98.03" transform="translate(-67.19 172.26) rotate(-27.46)" fill="#fffaf7" stroke="#534741" stroke-width="2"/>
          <rect x="286.68" y="177.77" width="64.64" height="91.77" transform="translate(-67.19 172.26) rotate(-27.46)" fill="none" stroke="#534741"/>
          <rect x="331.05" y="270.85" width="29.92" height="9.58" rx="4.26" ry="4.26" transform="translate(-88.12 190.57) rotate(-27.46)" fill="none" stroke="#534741" stroke-width="2"/>
        </g>
        <g>
          <rect x="292.09" y="209.9" width="3.58" height="26.88" transform="translate(-69.87 160.65) rotate(-27.46)" fill="#534741"/>
          <rect x="321.12" y="194.81" width="3.58" height="26.88" transform="translate(-59.65 172.33) rotate(-27.46)" fill="#534741"/>
          <rect x="296.96" y="207.83" width="1.79" height="26.88" transform="translate(-68.47 162.25) rotate(-27.46)" fill="#534741"/>
          <rect x="300.14" y="206.18" width="1.79" height="26.88" transform="translate(-67.35 163.53) rotate(-27.46)" fill="#534741"/>
          <rect x="303.32" y="204.53" width="1.79" height="26.88" transform="translate(-66.23 164.81) rotate(-27.46)" fill="#534741"/>
          <rect x="306.55" y="203.08" width="0.9" height="26.88" transform="translate(-65.25 165.93) rotate(-27.46)" fill="#534741"/>
          <rect x="308.06" y="202.06" width="1.79" height="26.88" transform="translate(-64.56 166.72) rotate(-27.46)" fill="#534741"/>
          <rect x="311.24" y="200.41" width="1.79" height="26.88" transform="translate(-63.44 168) rotate(-27.46)" fill="#534741"/>
          <rect x="314.42" y="198.76" width="1.79" height="26.88" transform="translate(-62.32 169.28) rotate(-27.46)" fill="#534741"/>
          <rect x="317.65" y="197.31" width="0.9" height="26.88" transform="translate(-61.34 170.4) rotate(-27.46)" fill="#534741"/>
          <rect x="326.54" y="192.69" width="0.9" height="26.88" transform="translate(-58.21 173.98) rotate(-27.46)" fill="#534741"/>
          <rect x="328.05" y="191.67" width="1.79" height="26.88" transform="translate(-57.52 174.77) rotate(-27.46)" fill="#534741"/>
          <rect x="331.23" y="190.02" width="1.79" height="26.88" transform="translate(-56.4 176.05) rotate(-27.46)" fill="#534741"/>
        </g>
        <path d="M375.52,283.6c-26.39-49.22-9.38-51.76-13.82-71.71s10.82-44.48,16.12-11.4S421.31,306,421.31,306l-55.75,39.36" fill="#fffaf7" stroke="#534741" stroke-width="2"/>
        <path d="M298.18,288s37.84,42.68,63.41,55.35" fill="none" stroke="#534741" stroke-width="2"/>
        <rect x="286.13" y="269.63" width="33.79" height="16.25" rx="7.23" ry="7.23" transform="translate(-72.89 111.44) rotate(-18.64)" fill="#fffaf7" stroke="#534741" stroke-width="2"/>
        <rect x="293.37" y="285.03" width="29.11" height="16.25" rx="7.23" ry="7.23" transform="translate(-77.55 113.81) rotate(-18.64)" fill="#fffaf7" stroke="#534741" stroke-width="2"/>
        <rect x="278.71" y="254.37" width="33.79" height="16.25" rx="7.23" ry="7.23" transform="translate(-68.4 108.27) rotate(-18.64)" fill="#fffaf7" stroke="#534741" stroke-width="2"/>
        <rect x="271.28" y="239.09" width="33.79" height="16.25" rx="7.23" ry="7.23" transform="translate(-63.91 105.09) rotate(-18.64)" fill="#fffaf7" stroke="#534741" stroke-width="2"/>
        <path d="M366.23,363.45l-10.4-8.89C363.08,344,428.4,300,428.4,300l9.1,7.81S368.5,359.25,366.23,363.45Z" fill="#fffaf7" stroke="#534741" stroke-linejoin="round" stroke-width="2"/>
      </g>
      <path d="M437.5,307.84s12.94-6.77,34.19,20.74" fill="none" stroke="#534741" stroke-linejoin="round" stroke-width="2"/>
      <path d="M366.23,363.45s.85,17.24,16.54,31.81" fill="none" stroke="#534741" stroke-linejoin="round" stroke-width="2"/>
    </g>
    <path d="M304.69,44.6s22.15-9.19,26.91-19.71" fill="none" stroke="#534741"/>
    <line x1="541.1" y1="46.12" x2="475.08" y2="117.74" fill="#fffaf7" stroke="#e9e0db" stroke-width="2"/>
    <line x1="537.73" y1="70.06" x2="497.9" y2="113.26" fill="#fffaf7" stroke="#e9e0db" stroke-width="2"/>
    <line x1="299.65" y1="141.02" x2="353.72" y2="188.94" fill="#fffaf7" stroke="#534741" stroke-linecap="round" stroke-linejoin="round" stroke-width="2"/>
    <g>
      <g>
        <g>
          <path d="M177.58,181.86c17.83,2.74,39.72,11.51,54.91,21.23s28,23.58,35.09,40.14l-66.67,45.42s-35.88-1-59.76-26.39c0,0-13.62-18.15-17.16-27.19s-6.2-9.37-6.2-9.37S175.9,181.6,177.58,181.86Z" fill="#fffaf7"/>
          <path d="M166.53,180.17a429.31,429.31,0,0,0-55.87,41.3l7.13,4.23c18.74-12.52,41.05-31.32,59.79-43.84C177.58,181.86,168.18,179.15,166.53,180.17Z" fill="none" stroke="#e9e0db" stroke-width="2"/>
          <path d="M117.79,225.7a231.38,231.38,0,0,1,15.51,25.73c11.65,21.83,42.87,36.36,67.61,37.22" fill="none" stroke="#e9e0db" stroke-width="2"/>
          <path d="M117.79,225.7c8.15,6.82,34.6,26,43.29,32.07,13.8,9.7,29.17,17.81,39.83,30.88l66.67-45.42c-7.13-16.56-19.89-30.42-35.09-40.14s-37.06-18.66-54.91-21.23" fill="none" stroke="#e9e0db" stroke-width="2"/>
          <line x1="173.56" y1="180.83" x2="115.47" y2="224.82" fill="none" stroke="#e9e0db"/>
          <path d="M212.24,291.8a441.88,441.88,0,0,0,62.08-42.57l-7-5.78c-20.69,12.71-45.7,32.43-66.39,45.14C200.92,288.59,210.43,292.82,212.24,291.8Z" fill="none" stroke="#e9e0db" stroke-width="2"/>
          <line x1="204.99" y1="290.25" x2="269.65" y2="244.74" fill="none" stroke="#e9e0db"/>
        </g>
        <path d="M240.08,217.59c-4.31.34-8,3.35-10.65,6.73a20.17,20.17,0,0,0-4.66,10.24c-.38,3.79,1,7.89,4.06,10.11,2.88,2.08,6.69,2.24,10.23,2a28.8,28.8,0,0,0,11.93-3.2,15.35,15.35,0,0,0,7.65-9.38,12.8,12.8,0,0,0,.07-5.71" fill="none" stroke="#e9e0db" stroke-width="2"/>
        <path d="M241,221.08a113.87,113.87,0,0,1-10.42,16.57" fill="none" stroke="#e9e0db" stroke-width="2"/>
        <path d="M248.79,222.48a167.8,167.8,0,0,0-13.06,15.85" fill="none" stroke="#e9e0db" stroke-width="2"/>
        <path d="M252.32,226.75a23.34,23.34,0,0,1-13.11,11.88" fill="none" stroke="#e9e0db" stroke-width="2"/>
        <path d="M224.05,234c-3.85.22-7.76.46-11.36,1.82s-6.91,4.05-8,7.73c-1.43,4.61,1.06,9.89,5.18,12.43s9.44,2.57,14,.89a29.19,29.19,0,0,0,11.51-8.55" fill="none" stroke="#e9e0db" stroke-width="2"/>
        <path d="M212.16,244.63a34.62,34.62,0,0,0,13.76-2.38" fill="none" stroke="#e9e0db" stroke-width="2"/>
        <path d="M216.27,249.45a20.44,20.44,0,0,0,11.48-4" fill="none" stroke="#e9e0db" stroke-width="2"/>
        <path d="M135.71,255.43s-4.14-5.87-4-12c0-1.09.72-1.93,1.59-1.27,6.93,5.33,22.35,15.86,28,19.55,6.71,4.4,34.92,26.58,34.92,26.58" fill="none" stroke="#e9e0db"/>
      </g>
      <g>
        <path d="M183.46,272.69c-3.13-1.43-2-5.56-.75-8.75a39.18,39.18,0,0,1,5.49-8.69c2.06-2.75,4.1-5.61,5.12-8.89,2.37-7.63-1.18-15.74-1.38-23.73a37.72,37.72,0,0,1,4.37-17.44,105.92,105.92,0,0,1,8.89-15.29s50.11,20,62.11,53.55l-65.68,44.7S187.19,274.4,183.46,272.69Z" fill="#e9e0db"/>
        <path d="M184.22,271.4c-5.56-3.72,6.27-16.35,8.23-19.64,3.14-5.28,3.55-10.69,2.71-16.68-1.16-8.25-2.61-15.45.15-23.61,2.48-7.37,6.75-14.47,11.18-20.81l-1.69.69a150,150,0,0,1,25.27,13.45c14.79,9.56,29.49,22.11,35.8,39l.69-1.7-65.69,44.71,1.82.23c-5.58-5.3-11.58-12.14-18.47-15.69-1.72-.89-3.24,1.7-1.52,2.59,6.68,3.44,12.46,10.08,17.87,15.22a1.53,1.53,0,0,0,1.82.24l65.68-44.71a1.53,1.53,0,0,0,.69-1.69c-6.34-17-20.52-29.78-35.32-39.63a155.14,155.14,0,0,0-27.84-15,1.51,1.51,0,0,0-1.7.69c-4.75,6.8-9.29,14.41-11.78,22.38-2.53,8.13-1.16,15.33,0,23.5.79,5.48.52,10.36-2.29,15.22-2.31,4-5.67,7.24-7.74,11.37s-3.8,9.44.58,12.37C184.31,275.06,185.82,272.46,184.22,271.4Z" fill="#e9e0db"/>
      </g>
      <path d="M201.54,188.18s-14.84,14.32-13,39.18-4,20.18-9.68,30.69-1.27,10.74-1.27,10.74" fill="none" stroke="#e9e0db"/>
      <g>
        <g>
          <path d="M174,223s-2.56,2.55-4.15,3.14c-.94.35-5,.41-9.37-.56l9.26-7.87Z" fill="#fffaf7" stroke="#e9e0db" stroke-linejoin="round" stroke-width="2"/>
          <path d="M169.73,217.75l-9.26,7.87a19.84,19.84,0,0,1-8.39-3.75c-4.31-3.66,5.52-19.15,5.52-19.15Z" fill="#e9e0db" stroke="#e9e0db" stroke-linejoin="round" stroke-width="2"/>
        </g>
        <g>
          <path d="M153.63,210.62c1.05-3.86,3.12-7.45,4-7.9s5.31.59,9.48,1.65l-1.8,9.28Z" fill="#fffaf7" stroke="#e9e0db" stroke-width="2"/>
          <path d="M167.08,204.37c3.89,1,7.48,2,7.48,2,2.17.61,2.11,5.6,1.38,10l-10.66-2.77Z" fill="#e9e0db" stroke="#e9e0db" stroke-width="2"/>
          <path d="M175.94,216.42c-.5,3-1.32,5.75-1.95,6.62-.87,1.19-5.76,1.17-10.56.15l1.85-9.54Z" fill="#fffaf7" stroke="#e9e0db" stroke-width="2"/>
          <path d="M165.28,213.65l-1.85,9.54c-3.81-.8-7.56-2.23-9.19-4.19s-1.46-5.26-.61-8.38Z" fill="#e9e0db" stroke="#e9e0db" stroke-width="2"/>
        </g>
      </g>
      <g>
        <g>
          <path d="M183.07,235.08s.31,4.38-.42,6.31c-.42,1.14-3.63,5-8,8.17l.14-14.77Z" fill="#fffaf7" stroke="#e9e0db" stroke-linejoin="round" stroke-width="2"/>
          <path d="M174.82,234.79l-.14,14.77a23.89,23.89,0,0,1-10.14,4.71c-6.79,1-13.19-20.32-13.19-20.32Z" fill="#e9e0db" stroke="#e9e0db" stroke-linejoin="round" stroke-width="2"/>
        </g>
        <g>
          <path d="M155.44,243.9c-2.71-4.05-4.36-8.82-4.09-10s4.77-4.41,9.07-7.4l7.09,9Z" fill="#fffaf7" stroke="#e9e0db" stroke-width="2"/>
          <path d="M160.42,226.55c4-2.78,7.83-5.24,7.83-5.24,2.29-1.51,6.83,2.52,10.29,6.7l-11,7.59Z" fill="#e9e0db" stroke="#e9e0db" stroke-width="2"/>
          <path d="M178.54,228c2.37,2.86,4.24,5.79,4.53,7.07.4,1.75-3.51,6.22-8.26,9.82l-7.3-9.3Z" fill="#fffaf7" stroke="#e9e0db" stroke-width="2"/>
          <path d="M167.51,235.6l7.3,9.3c-3.78,2.86-8.08,5.17-11.18,5.11s-6-2.85-8.19-6.11Z" fill="#e9e0db" stroke="#e9e0db" stroke-width="2"/>
        </g>
      </g>
    </g>
    <polygon points="307.67 130.64 337.97 100.89 346.91 114.24 307.67 130.64" fill="#fffaf7" stroke="#534741" stroke-linecap="round" stroke-linejoin="round" stroke-width="2"/>
    <polygon points="314.93 135.11 355.52 122.65 357.32 138.62 314.93 135.11" fill="#fffaf7" stroke="#534741" stroke-linecap="round" stroke-linejoin="round" stroke-width="2"/>
  </g>
</svg>
