<svg xmlns="http://www.w3.org/2000/svg" viewBox="0 0 549.64 120.12">
  <title>hometitle</title>
  <g>
    <rect x="24.99" y="14.98" width="497.65" height="89.21" rx="12" ry="12" fill="#e9e0db"/>
    <g>
      <line x1="21.19" y1="8.06" x2="256.35" y2="8.06" fill="none" stroke="#534741" stroke-miterlimit="10" stroke-width="2"/>
      <line x1="1" y1="1" x2="380.15" y2="1" fill="none" stroke="#534741" stroke-miterlimit="10" stroke-width="2"/>
      <line x1="1" y1="0.18" x2="1" y2="87.27" fill="none" stroke="#534741" stroke-miterlimit="10" stroke-width="2"/>
      <g>
        <path d="M22.39,1A21.39,21.39,0,0,1,1,22.39" fill="none" stroke="#534741" stroke-miterlimit="10" stroke-width="2"/>
        <circle cx="10.08" cy="9.67" r="2.02" fill="none" stroke="#534741" stroke-miterlimit="10" stroke-width="2"/>
      </g>
      <line x1="7.12" y1="21.19" x2="7.12" y2="87.27" fill="none" stroke="#534741" stroke-miterlimit="10" stroke-width="2"/>
    </g>
    <g>
      <line x1="528.45" y1="112.06" x2="293.29" y2="112.06" fill="none" stroke="#534741" stroke-miterlimit="10" stroke-width="2"/>
      <line x1="548.64" y1="119.12" x2="169.5" y2="119.12" fill="none" stroke="#534741" stroke-miterlimit="10" stroke-width="2"/>
      <line x1="548.64" y1="119.94" x2="548.64" y2="32.85" fill="none" stroke="#534741" stroke-miterlimit="10" stroke-width="2"/>
      <g>
        <path d="M527.25,119.12a21.39,21.39,0,0,1,21.39-21.39" fill="none" stroke="#534741" stroke-miterlimit="10" stroke-width="2"/>
        <circle cx="539.56" cy="110.45" r="2.02" fill="none" stroke="#534741" stroke-miterlimit="10" stroke-width="2"/>
      </g>
      <line x1="542.52" y1="98.93" x2="542.52" y2="32.85" fill="none" stroke="#534741" stroke-miterlimit="10" stroke-width="2"/>
    </g>
    <g>
      <path d="M228.26,32.15V54.56h-2.62V51.74H208.93v2.9h-2.62V32.15Zm-2.62,18.31V45.93H222c-2.47,0-3-1.11-3-3.76V33.43h-3.36c-.06,8.57-1,12.3-5.81,15.26l-.63-.8c3.48-3.36,3.9-6,3.93-14.46h-4.18v17Zm0-17h-4.21v8.4c0,1.39.28,1.82,1.7,1.82h2.51Z" fill="#534741"/>
      <path d="M246.4,29.87a44.75,44.75,0,0,1-1.91,6.35V55.61H242.1V40.77A25.36,25.36,0,0,1,239,44.45l-.74-.69c2.85-4.24,4.25-8.45,5.3-14.55Zm16.8,1.28V55.61h-2.57v-2H249.42v2h-2.51V31.15Zm-2.57,1.28H249.42v19.9h11.21Zm-6.86,6.07h-3.56V37.22h3.56V33.49h2.39v3.73h3.7V38.5h-3.7v3.81h3v7.4h-8.25v-7.4h2.9Zm-.68,5.09v4.84h3.81V43.59Z" fill="#534741"/>
      <path d="M275.67,33.66c.48,2.5.31,6.66-.37,8.37l-2.59-1a15.1,15.1,0,0,0,1.93-7.4Zm.94-4.42h2.45V55.67h-2.45Zm5.92,8.66-2.28.65a37.53,37.53,0,0,0-.82-5.15l.94-.34A22.56,22.56,0,0,1,282.53,37.9Zm15.63.91v1.28H281.31V38.81h7V36.56H283V35.28h5.38v-2h-6.55V32h6.55V29.1H291V32h6.75v1.29H291v2h5.64v1.28H291v2.25Zm-15.46,3h13.53v11c0,2.9-2.4,3.81-7,1.25l.28-1c3.7.69,4.16.37,4.16-1V49.77h-8.46v5.92H282.7Zm2.56,1.28v2.1h8.46v-2.1Zm8.46,5.41V46.47h-8.46v2.08Z" fill="#534741"/>
      <path d="M316.84,45.5a44.66,44.66,0,0,1-9,5.13l-1.17-2.71c.89-.2,2.25-.57,3.82-1.08V37.1h-3.33V35.82h3.33V29.24H313v6.58H316V37.1H313V46a36.9,36.9,0,0,0,3.44-1.42Zm11.9,9.43c-3.9,0-4.64-.43-4.64-2.82V47.92H323c-.82,3.87-4,6.95-10.59,8.09l-.29-1c4.9-1.48,7.61-3.79,8.35-7.09h-3.36v-7.4h13.35v7.4h-3.93V51.2c0,1.31.17,1.5,2.31,1.53s2.22-.45,2.3-3.93h1C332.9,53.25,333.38,55,328.74,54.93Zm-10-21.19h-2.34V32.46H324c-1.26-.85-2.85-1.88-4-2.62l.32-1a30,30,0,0,1,5.52,1.82l-1,1.77h6.61v1.28h-3.93l1.68.74a20.07,20.07,0,0,1-2.85,3.19h5.93V39H315.64l0-1.28h4.9a35,35,0,0,0-2.11-3.59Zm.74,9.77H328V41.8h-8.57Zm0,3.13H328V44.79h-8.57Zm7-12.9h-6.95a13.87,13.87,0,0,1,3,2.85l-1.48,1.08h3.79A22.19,22.19,0,0,0,326.49,33.74Z" fill="#534741"/>
      <path d="M366.84,52l-.71,2.85a83.16,83.16,0,0,1-12.53,0c-2.19-.11-6.21-.4-8.43-4.75a11.77,11.77,0,0,1-3.25,5.75l-.74-.69c1.74-2.19,2.2-6,2.2-11.73l2.42.26a36.18,36.18,0,0,1-.32,4.84,8,8,0,0,0,1.8,2.16V42.17h-5.67V40.89h12.61v1.28h-4.44v3.42h4.1v1.28h-4.1v5.18a13,13,0,0,0,3.56.54A80.68,80.68,0,0,0,366.84,52Zm-14.3-13h-9.31V30.32h9.31Zm-2.33-7.37h-4.58v2.25h4.58Zm0,3.53h-4.58V37.7h4.58Zm7,12,2.36,1.48a23,23,0,0,1-7.17,3.42l-.4-.86A15.32,15.32,0,0,0,357.16,47.18Zm1.51-15h-5V30.89H366v1.29h-4.69a15,15,0,0,1-1.88,2.56h5.12V46.61h-9.79V34.74h3.36C358.32,33.94,358.52,33,358.67,32.18Zm3.58,3.75H357v2.28h5.23Zm0,3.42H357v2.34h5.23Zm0,3.47H357v2.6h5.23Zm-1.65,4.25a21,21,0,0,1,5.73,2.64l-1.51,2.08A38.53,38.53,0,0,0,360.15,48Z" fill="#534741"/>
    </g>
    <g>
      <path d="M89.38,75a22.6,22.6,0,0,1-1.45,1.93H98.66V88.57H96.52V87h-9v1.65H85.4V79.57a22.6,22.6,0,0,1-4.69,3.33l-.45-.78A23.69,23.69,0,0,0,87.09,75h-6V73.93h6.66c.29-.53.55-1.07.79-1.62H82.28V71.24h6.65a14.49,14.49,0,0,0,.52-1.62c-2.52.17-5.09.26-7.33.21L82,69c7-.46,11.69-1.43,15.19-2.67l2.19,1.86A46.91,46.91,0,0,1,92,69.4a13.82,13.82,0,0,1-.57,1.84H99.9v1.07h-9c-.27.55-.55,1.09-.86,1.62h11.26V75Zm7.14,3h-9v1.93h9Zm0,3h-9v2h9Zm0,3h-9v2h9Z" fill="#534741"/>
      <path d="M115.56,75a22.6,22.6,0,0,1-1.45,1.93h10.73V88.57H122.7V87h-9v1.65h-2.15V79.57a22.6,22.6,0,0,1-4.69,3.33l-.45-.78A23.69,23.69,0,0,0,113.27,75h-6V73.93h6.66c.29-.53.55-1.07.79-1.62h-6.22V71.24h6.65a14.49,14.49,0,0,0,.52-1.62c-2.52.17-5.09.26-7.33.21l-.12-.85c7-.46,11.69-1.43,15.19-2.67l2.19,1.86a46.91,46.91,0,0,1-7.43,1.23,13.82,13.82,0,0,1-.57,1.84h8.52v1.07h-9c-.27.55-.55,1.09-.86,1.62h11.26V75Zm7.14,3h-9v1.93h9Zm0,3h-9v2h9Zm0,3h-9v2h9Z" fill="#534741"/>
      <path d="M137.9,72.19V88.73h-2V75.55a17.5,17.5,0,0,1-2.81,3l-.57-.64a28.35,28.35,0,0,0,5.07-11.62l2.33.69A30.38,30.38,0,0,1,137.9,72.19Zm9.6-.43v14.5c0,2.35-1.88,3.38-6.41,1l.22-.81c3.83.66,4.05.38,4.05-1V71.76h-2.88a25.24,25.24,0,0,1-3.15,4.88l-.73-.5a23.52,23.52,0,0,0,3.07-9.59l2.42.52A20.22,20.22,0,0,1,143,70.69h8l.69-.5,2.26,1.29a17.82,17.82,0,0,1-3.57,4.09l-.69-.57A16.68,16.68,0,0,0,151,71.76ZM144,77.17a24.56,24.56,0,0,1-4.59,8.52l-.69-.53a27.37,27.37,0,0,0,3-8.71Zm10.14,7.16-2.33,1a67,67,0,0,0-3-8.57l.72-.45A37.23,37.23,0,0,1,154.09,84.33Z" fill="#534741"/>
      <path d="M163.94,71.14h4.31V87.85h-2.09V85.69h-4.1v2.62H160V71.14h2.83a47.28,47.28,0,0,0,.74-4.78l2.57.55A29.17,29.17,0,0,1,163.94,71.14Zm2.22,1.07h-4.1v5.26h4.1Zm0,12.41V78.55h-4.1v6.07Zm13.35-13.43a136.22,136.22,0,0,1-.57,14.52c-.36,3.1-2.93,4.12-7.74,1.24l.26-.83c4.55,1,5.1.61,5.31-1.31.26-2.34.45-5.43.53-12.55h-5.1a22.9,22.9,0,0,1-3.14,5.55l-.69-.53a34.58,34.58,0,0,0,2.93-10.85l2.5.5a32.19,32.19,0,0,1-1.19,4.26Zm-6.12,10.86a42,42,0,0,0-2.71-6.15l.69-.54a22.18,22.18,0,0,1,4.19,5.47Z" fill="#534741"/>
      <path d="M196,66.88h6.83v2.93h-3.36V83.09H196ZM198.19,82V68.83h3.55v-1h-4.52V82Z" fill="#534741"/>
      <path d="M219.56,86.76c-.55,2.16-3.12,2.55-6.14.43l.33-.79c3.15.76,3.69.57,4-.57a21.38,21.38,0,0,0,.62-3.69H215.3L215,83.52l-1.85-.29a51.13,51.13,0,0,0,1.07-6l1.81.57h2.57V75.09H216.3a19.9,19.9,0,0,1-5,2.46l-.36-.77a17.86,17.86,0,0,0,5.14-3.47c-.76-1-1.76-2.31-2.49-3.12l.49-.62a19.63,19.63,0,0,1,3.34,2.33,11.47,11.47,0,0,0,1.9-3.11H213v-1h6.24l.57-.43,2.05,1.12a17.06,17.06,0,0,1-4.27,5.62h2.81v4.74h-4.57c-.12.71-.24,1.52-.38,2.31h5A36.75,36.75,0,0,1,219.56,86.76Zm8.17-11.83v1.74c0,.71.4,1,1.38.85a1.61,1.61,0,0,0,1.31-.69l.93,1.48a2.88,2.88,0,0,1-2.53,1c-2.24,0-2.85-.54-2.85-2V75h-2.05c0,2.54-.6,4-3.1,5.16h6.29l.59-.38,2,.95a13.08,13.08,0,0,1-2.8,4.33,14.59,14.59,0,0,0,4.3,1.46l-1,2.09a12.86,12.86,0,0,1-4.61-2.4,15.1,15.1,0,0,1-5.72,2.59l-.28-.71a15,15,0,0,0,5-2.86,13.21,13.21,0,0,1-2.38-4.07h-1.36v-1a2,2,0,0,0-.21.1l-.41-.69c1.79-1.46,1.86-2.6,1.86-5.65h4.31A15.14,15.14,0,0,1,222,66.69l.83-.26a19.79,19.79,0,0,0,1.86,3.24,16.13,16.13,0,0,0,1.69-2.45l1.83,1.14a21.15,21.15,0,0,1-2.95,2.07,11.67,11.67,0,0,0,1.6,1.55,15.53,15.53,0,0,0,2-2.62l1.81,1.19a16.22,16.22,0,0,1-3,2,16.69,16.69,0,0,0,4.93,2l-1.17,2.24A18.15,18.15,0,0,1,227.73,74.93Zm-4.67,6.21a10.83,10.83,0,0,0,2.52,3,7.93,7.93,0,0,0,1.74-3Z" fill="#534741"/>
      <path d="M244.91,83.23a26.17,26.17,0,0,1-7.07,4.36l-.45-.76a21.17,21.17,0,0,0,5.57-5Zm13.49-3.14v1.07h-9v4.57c0,3.5-2.64,3.41-6.16,1.5l.23-.83c3.24.64,3.79.52,3.79-1V81.16h-9.38V80.09Zm-14-11.54h-6.16V67.48h19.44v1.07h-6.18v2.14h5.16v5H239.41v-5h5Zm-3.52,9.85V77.33h14.52V78.4Zm3.52-6.64h-3v2.83h3Zm2-1.07h3.1V68.55h-3.1Zm0,3.9h3.1V71.76h-3.1Zm5.26,7.34A28.3,28.3,0,0,1,258,85.64l-1.64,1.93a42.28,42.28,0,0,0-5.1-4.88Zm-.16-7.34h3.11V71.76h-3.11Z" fill="#534741"/>
      <path d="M282.73,88.14c-2.53,0-2.83-.57-2.83-2.43V80.62h-.74c-.17,4.8-1.93,6.64-6.55,8.26l-.4-.74A12.85,12.85,0,0,0,274.35,87h-7v1.48h-1.81V80.66A11.67,11.67,0,0,1,264,82.24l-.45-.58a17.59,17.59,0,0,0,3.07-6.26h-1.83V71.55h4.69v3.73l0,0a12.27,12.27,0,0,1,2.64,1.93l-.71.74h3.9v.93h-3.5v1.57h2.81v.95H271.8v1.71h2.93v1H271.8V85.9h3.79a7.67,7.67,0,0,0,1.73-5.28h-1.4V69.57H272.8V71H271V69.57h-2.4V71h-1.81V69.57h-3.07V68.5h3.07V66.69h1.81V68.5H271V66.69h1.81V68.5h3.12V68h7.66v12.6H281.7v4.76c0,1,.15,1,.93,1,1.05-.05,1.17-.45,1.17-3.05h.86C285.35,86.83,285.35,88.09,282.73,88.14ZM266.18,74.4H268V72.5h-1.84ZM268.33,76a17.38,17.38,0,0,1-1,2h3.34c-.53-.76-1.15-1.53-1.62-2.15l.28-.38H267ZM270,78.86h-2.66v1.57H270Zm0,2.52h-2.66v1.71H270ZM270,84h-2.66V85.9H270Zm5.14-8.66h-4.66V71.55h4.66Zm-1.42-2.88H271.9v1.88h1.81Zm4-.69h4V69.1h-4Zm0,3.74h4V72.81h-4Zm0,4h4v-3h-4Z" fill="#534741"/>
      <path d="M293.46,85.92h3.36V72.64h3.47V88.85h-6.83Zm5.59,2V73.71h-1V86.9h-3.55v1Z" fill="#534741"/>
      <path d="M325.26,84.21a50.62,50.62,0,0,1-8.95,3.24L315.64,85c.38,0,.83-.07,1.33-.14V77.38h1.86v7.28l1.12-.19v-9.9h-2.88v-7h7.5v7H322v3.52h3.17v1.07H322v4.93c1.1-.24,2.15-.47,3-.71ZM319,73.5h3.59V68.6H319ZM337.4,85.78l-1.77,2.45c-2-1.31-5.35-4.19-6.26-11.35h-1.59v8.33c1.14-.26,2.24-.55,3.24-.86l.31.77a32.1,32.1,0,0,1-7.62,3.16L323,86c.88-.1,1.83-.24,2.78-.4V67.43h9.38v9.45h-4.88A13.16,13.16,0,0,0,332,81.4a15.61,15.61,0,0,0,2.4-3.64l2,1.36a19.22,19.22,0,0,1-3.9,3A13.39,13.39,0,0,0,337.4,85.78Zm-9.62-14.26h5.28v-3h-5.28Zm0,4.29h5.28V72.59h-5.28Z" fill="#534741"/>
      <path d="M353.84,72.31v16.3h-2.29v-13a29.06,29.06,0,0,1-9.09,7.31l-.47-.79c5.78-4,8.54-7.88,10.45-12.54h-9.57V68.29h20.54V69.6h-8.28A24.61,24.61,0,0,1,353.84,72.31Zm9.93,8.57-2.15,1.85A61.27,61.27,0,0,0,355,74.55l.55-.69A36.39,36.39,0,0,1,363.77,80.88Z" fill="#534741"/>
      <path d="M377.62,84.21a50.45,50.45,0,0,1-9,3.24L368,85c.38,0,.83-.07,1.33-.14V77.38h1.86v7.28l1.12-.19v-9.9h-2.88v-7h7.5v7h-2.58v3.52h3.17v1.07h-3.17v4.93c1.1-.24,2.15-.47,3-.71ZM371.38,73.5H375V68.6h-3.59Zm18.38,12.28L388,88.23c-2-1.31-5.35-4.19-6.26-11.35h-1.59v8.33c1.14-.26,2.24-.55,3.24-.86l.31.77a32.27,32.27,0,0,1-7.62,3.16L375.31,86c.88-.1,1.83-.24,2.78-.4V67.43h9.38v9.45h-4.88a13,13,0,0,0,1.79,4.52,15.61,15.61,0,0,0,2.4-3.64l2,1.36a19.22,19.22,0,0,1-3.9,3A13.39,13.39,0,0,0,389.76,85.78Zm-9.62-14.26h5.28v-3h-5.28Zm0,4.29h5.28V72.59h-5.28Z" fill="#534741"/>
      <path d="M399.49,76.24V88.73h-2.1V78.66a19,19,0,0,1-2.55,2.17l-.57-.67a25.49,25.49,0,0,0,5.57-9l2.1,1A21.32,21.32,0,0,1,399.49,76.24ZM395.06,74l-.55-.65a20.85,20.85,0,0,0,4.43-7l2.07,1.1A21.31,21.31,0,0,1,395.06,74Zm20.78,6V81H412v5.66c0,2.24-2.59,3-6.26.88l.29-.85c3.31.69,3.78.59,3.78-.88V81h-9.45V79.93h9.45V77.86h-8.92V76.78h14.4v1.08H412v2.07Zm-8.9,4.95L405.15,86A46.73,46.73,0,0,0,403,81.88l.67-.55A17.13,17.13,0,0,1,406.94,84.88Zm6.26-9.67H403.06V67.67H413.2Zm-2.05-6.47h-6v2.19h6Zm0,3.26h-6v2.14h6Z" fill="#534741"/>
      <path d="M421.05,85.85h8.19V66.74h2.28v8.19h7.64v1.19h-7.64v9.73h10.21v1.34H421.05Z" fill="#534741"/>
      <path d="M447.75,68.45h6.67V85.21h-2.05V83.35H449.8v2.46h-2.05ZM452.37,75v-5.5H449.8V75Zm0,7.26V76.09H449.8v6.19Zm6.62,4c3.38.78,4,.76,4-.43v-6.1h-7.83V78.71H463V76.07h2.17v2.64h3.12v1.07h-3.12v6.6c0,1.93-2,3.47-6.45.73Zm-3.84-11.86h5.1V71.12h-4.36V70.05h4.36V66.69h2.19v3.36h4.45v1.07h-4.45v3.33h5.28v1.07H455.15Zm1.36,6.6.64-.55A19.26,19.26,0,0,1,460.84,84l-1.78,1.29A40.94,40.94,0,0,0,456.51,81.05Z" fill="#534741"/>
      <path d="M478.86,72.55V88.69h-2.14v-13a25.22,25.22,0,0,1-3.29,3.41l-.57-.69a30.72,30.72,0,0,0,6.21-11.93l2.36.79A30.07,30.07,0,0,1,478.86,72.55Zm13.57,16.11c-4.57-.31-6.93-6.35-7.76-13-1.58.24-3.17.48-4.74.69L479.71,75l4.84-.69c-.22-2.24-.31-4.69-.41-7.29h2.19c.1,2.65.22,5,.38,7,2.43-.36,4.88-.77,7.33-1.19l.2,1.3q-3.69.64-7.41,1.22c.55,4.43,2.05,10,4.86,10.61.95.22,1.28-.5,1.31-4.47H494C495,85.78,494.59,88.81,492.43,88.66Zm-1.38-16.28c-1.05-1.57-2.22-3.07-3.34-4.5l.55-.66a22.81,22.81,0,0,1,4.57,3.47Z" fill="#534741"/>
    </g>
  </g>
</svg>
