<svg xmlns="http://www.w3.org/2000/svg" viewBox="0 0 549.64 120.12">
  <g>
    <rect x="24.99" y="14.98" width="497.65" height="89.21" rx="12" ry="12" fill="#e9e0db"/>
    <g>
      <line x1="21.19" y1="8.06" x2="256.35" y2="8.06" fill="none" stroke="#534741" stroke-width="2"/>
      <line x1="1" y1="1" x2="380.15" y2="1" fill="none" stroke="#534741" stroke-width="2"/>
      <line x1="1" y1="0.18" x2="1" y2="87.27" fill="none" stroke="#534741" stroke-width="2"/>
      <g>
        <path d="M22.39,1A21.39,21.39,0,0,1,1,22.39" fill="none" stroke="#534741" stroke-width="2"/>
        <circle cx="10.08" cy="9.67" r="2.02" fill="none" stroke="#534741" stroke-width="2"/>
      </g>
      <line x1="7.12" y1="21.19" x2="7.12" y2="87.27" fill="none" stroke="#534741" stroke-width="2"/>
    </g>
    <g>
      <line x1="528.45" y1="112.06" x2="293.29" y2="112.06" fill="none" stroke="#534741" stroke-width="2"/>
      <line x1="548.64" y1="119.12" x2="169.5" y2="119.12" fill="none" stroke="#534741" stroke-width="2"/>
      <line x1="548.64" y1="119.94" x2="548.64" y2="32.85" fill="none" stroke="#534741" stroke-width="2"/>
      <g>
        <path d="M527.25,119.12a21.39,21.39,0,0,1,21.39-21.39" fill="none" stroke="#534741" stroke-width="2"/>
        <circle cx="539.56" cy="110.45" r="2.02" fill="none" stroke="#534741" stroke-width="2"/>
      </g>
      <line x1="542.52" y1="98.93" x2="542.52" y2="32.85" fill="none" stroke="#534741" stroke-width="2"/>
    </g>
    <text transform="translate(203.09 53.25)" font-size="28.47" fill="#534741" font-family="JinXuan-Fresh" font-weight="500" letter-spacing="0.2em">四個情境題</text>
    <text transform="translate(79.07 86.69)" font-size="23.8" fill="#534741" font-family="JinXuan-Fresh" font-weight="500" letter-spacing="0.1em">看看你<tspan x="78.54" y="0" letter-spacing="-0.38em">的</tspan><tspan x="93.29" y="0" letter-spacing="0.08em">『</tspan><tspan x="119" y="0">發票</tspan><tspan x="171.36" y="0" letter-spacing="0.08em">觀</tspan><tspan x="197.06" y="0" letter-spacing="-0.38em">』</tspan><tspan x="211.82" y="0">跟不跟得上時代</tspan></text>
  </g>
</svg>
